<svg width="23" height="27" viewBox="0 0 23 27" fill="none" xmlns="http://www.w3.org/2000/svg"><g clip-path="url(#clip0)"><path transform="translate(-502 -5961)" fill="#fff" d="M0 0H1440V6677H0z"/><path d="M-417.297 17.4766C-417.771 16.7839 -418.382 15.9089 -419.129 14.8516C-420.04 13.5391 -420.642 12.6549 -420.934 12.1992C-421.353 11.543 -421.635 10.9961 -421.781 10.5586C-421.927 10.1029 -422 9.58333 -422 9C-422 8.05208 -421.763 7.17708 -421.289 6.375C-420.815 5.57292 -420.177 4.9349 -419.375 4.46094C-418.573 3.98698 -417.698 3.75 -416.75 3.75C-415.802 3.75 -414.927 3.98698 -414.125 4.46094C-413.323 4.9349 -412.685 5.57292 -412.211 6.375C-411.737 7.17708 -411.5 8.05208 -411.5 9C-411.5 9.58333 -411.573 10.1029 -411.719 10.5586C-411.865 10.9961 -412.147 11.543 -412.566 12.1992C-412.858 12.6549 -413.46 13.5391 -414.371 14.8516L-416.203 17.4766C-416.331 17.6589 -416.513 17.75 -416.75 17.75C-416.987 17.75 -417.169 17.6589 -417.297 17.4766ZM-416.75 11.1875C-416.148 11.1875 -415.638 10.9779 -415.219 10.5586C-414.781 10.1211 -414.562 9.60156 -414.562 9C-414.562 8.39844 -414.781 7.88802 -415.219 7.46875C-415.638 7.03125 -416.148 6.8125 -416.75 6.8125C-417.352 6.8125 -417.871 7.03125 -418.309 7.46875C-418.728 7.88802 -418.938 8.39844 -418.938 9C-418.938 9.60156 -418.728 10.1211 -418.309 10.5586C-417.871 10.9779 -417.352 11.1875 -416.75 11.1875ZM-210.133 4.43359L-212.977 3.77734C-213.122 3.74089 -213.268 3.75911 -213.414 3.83203C-213.56 3.90495 -213.66 4.00521 -213.715 4.13281L-215.027 7.19531C-215.082 7.34115 -215.091 7.48698 -215.055 7.63281C-215.018 7.76042 -214.945 7.86979 -214.836 7.96094L-213.195 9.32812C-213.688 10.3854 -214.353 11.3333 -215.191 12.1719C-216.012 13.0104 -216.96 13.6758 -218.035 14.168L-219.375 12.5273C-219.466 12.3997 -219.585 12.3268 -219.73 12.3086C-219.876 12.2721 -220.013 12.2812 -220.141 12.3359L-223.203 13.6484C-223.349 13.7031 -223.458 13.8034 -223.531 13.9492C-223.604 14.0951 -223.622 14.2409 -223.586 14.3867L-222.93 17.2305C-222.911 17.3945 -222.839 17.5221 -222.711 17.6133C-222.583 17.7044 -222.447 17.75 -222.301 17.75C-220.004 17.75 -217.871 17.1758 -215.902 16.0273C-213.988 14.8971 -212.466 13.375 -211.336 11.4609C-210.188 9.49219 -209.613 7.35938 -209.613 5.0625C-209.613 4.91667 -209.659 4.77995 -209.75 4.65234C-209.841 4.52474 -209.969 4.45182 -210.133 4.43359ZM17.2422 8.97266C17.2969 8.91797 17.3516 8.90885 17.4062 8.94531C17.4792 8.98177 17.5156 9.03646 17.5156 9.10938V14.6875C17.5156 15.0521 17.388 15.362 17.1328 15.6172C16.8776 15.8724 16.5677 16 16.2031 16H4.82812C4.46354 16 4.15365 15.8724 3.89844 15.6172C3.64323 15.362 3.51562 15.0521 3.51562 14.6875V9.10938C3.51562 9.03646 3.54297 8.99089 3.59766 8.97266C3.67057 8.9362 3.73438 8.9362 3.78906 8.97266C4.39062 9.42839 5.79427 10.4583 8 12.0625L8.27344 12.3086C8.71094 12.6367 9.05729 12.8737 9.3125 13.0195C9.75 13.2565 10.151 13.375 10.5156 13.375C10.8802 13.375 11.2812 13.2474 11.7188 12.9922C11.9922 12.8464 12.3385 12.6094 12.7578 12.2812L13.0312 12.0625C15.1823 10.513 16.5859 9.48307 17.2422 8.97266ZM10.5156 12.5C10.7526 12.5 11.0443 12.3906 11.3906 12.1719C11.5911 12.0625 11.8737 11.862 12.2383 11.5703L12.5117 11.3789C14.8086 9.72005 16.349 8.58073 17.1328 7.96094L17.2695 7.85156C17.4336 7.72396 17.5156 7.55078 17.5156 7.33203V6.8125C17.5156 6.44792 17.388 6.13802 17.1328 5.88281C16.8776 5.6276 16.5677 5.5 16.2031 5.5H4.82812C4.46354 5.5 4.15365 5.6276 3.89844 5.88281C3.64323 6.13802 3.51562 6.44792 3.51562 6.8125V7.33203C3.51562 7.55078 3.59766 7.72396 3.76172 7.85156L3.95312 7.98828C4.75521 8.60807 6.27734 9.73828 8.51953 11.3789L8.79297 11.5703C9.15755 11.862 9.4401 12.0625 9.64062 12.1719C9.98698 12.3906 10.2786 12.5 10.5156 12.5Z" fill="#E8C300"/><path d="M-398.551 10.5273C-397.723 10.5273 -397.064 10.7598 -396.576 11.2246C-396.084 11.6895 -395.838 12.3262 -395.838 13.1348C-395.838 14.0918 -396.133 14.8281 -396.723 15.3438C-397.312 15.8594 -398.156 16.1172 -399.254 16.1172C-400.207 16.1172 -400.977 15.9629 -401.562 15.6543V14.0898C-401.254 14.2539 -400.895 14.3887 -400.484 14.4941C-400.074 14.5957 -399.686 14.6465 -399.318 14.6465C-398.213 14.6465 -397.66 14.1934 -397.66 13.2871C-397.66 12.4238 -398.232 11.9922 -399.377 11.9922C-399.584 11.9922 -399.812 12.0137 -400.062 12.0566C-400.312 12.0957 -400.516 12.1387 -400.672 12.1855L-401.393 11.7988L-401.07 7.43359H-396.424V8.96875H-399.482L-399.641 10.6504L-399.436 10.6094C-399.197 10.5547 -398.902 10.5273 -398.551 10.5273ZM-391.596 14.6934C-391.283 14.6934 -390.908 14.625 -390.471 14.4883V15.8184C-390.916 16.0176 -391.463 16.1172 -392.111 16.1172C-392.826 16.1172 -393.348 15.9375 -393.676 15.5781C-394 15.2148 -394.162 14.6719 -394.162 13.9492V10.791H-395.018V10.0352L-394.033 9.4375L-393.518 8.05469H-392.375V9.44922H-390.541V10.791H-392.375V13.9492C-392.375 14.2031 -392.305 14.3906 -392.164 14.5117C-392.02 14.6328 -391.83 14.6934 -391.596 14.6934ZM-383.094 16H-384.881V12.1738C-384.881 11.2285 -385.232 10.7559 -385.936 10.7559C-386.436 10.7559 -386.797 10.9258 -387.02 11.2656C-387.242 11.6055 -387.354 12.1562 -387.354 12.918V16H-389.141V6.88281H-387.354V8.74023C-387.354 8.88477 -387.367 9.22461 -387.395 9.75977L-387.436 10.2871H-387.342C-386.943 9.64648 -386.311 9.32617 -385.443 9.32617C-384.674 9.32617 -384.09 9.5332 -383.691 9.94727C-383.293 10.3613 -383.094 10.9551 -383.094 11.7285V16ZM-377.996 16V7.43359H-376.18V14.5H-372.705V16H-377.996ZM-369.928 12.7129C-369.928 13.3613 -369.822 13.8516 -369.611 14.1836C-369.396 14.5156 -369.049 14.6816 -368.568 14.6816C-368.092 14.6816 -367.75 14.5176 -367.543 14.1895C-367.332 13.8574 -367.227 13.3652 -367.227 12.7129C-367.227 12.0645 -367.332 11.5781 -367.543 11.2539C-367.754 10.9297 -368.1 10.7676 -368.58 10.7676C-369.057 10.7676 -369.4 10.9297 -369.611 11.2539C-369.822 11.5742 -369.928 12.0605 -369.928 12.7129ZM-365.398 12.7129C-365.398 13.7793 -365.68 14.6133 -366.242 15.2148C-366.805 15.8164 -367.588 16.1172 -368.592 16.1172C-369.221 16.1172 -369.775 15.9805 -370.256 15.707C-370.736 15.4297 -371.105 15.0332 -371.363 14.5176C-371.621 14.002 -371.75 13.4004 -371.75 12.7129C-371.75 11.6426 -371.471 10.8105 -370.912 10.2168C-370.354 9.62305 -369.568 9.32617 -368.557 9.32617C-367.928 9.32617 -367.373 9.46289 -366.893 9.73633C-366.412 10.0098 -366.043 10.4023 -365.785 10.9141C-365.527 11.4258 -365.398 12.0254 -365.398 12.7129ZM-357.875 16H-359.662V12.1738C-359.662 11.7012 -359.746 11.3477 -359.914 11.1133C-360.082 10.875 -360.35 10.7559 -360.717 10.7559C-361.217 10.7559 -361.578 10.9238 -361.801 11.2598C-362.023 11.5918 -362.135 12.1445 -362.135 12.918V16H-363.922V9.44922H-362.557L-362.316 10.2871H-362.217C-362.018 9.9707 -361.744 9.73242 -361.396 9.57227C-361.045 9.4082 -360.646 9.32617 -360.201 9.32617C-359.439 9.32617 -358.861 9.5332 -358.467 9.94727C-358.072 10.3574 -357.875 10.9512 -357.875 11.7285V16ZM-353.961 16.1172C-354.73 16.1172 -355.336 15.8184 -355.777 15.2207C-356.215 14.623 -356.434 13.7949 -356.434 12.7363C-356.434 11.6621 -356.211 10.8262 -355.766 10.2285C-355.316 9.62695 -354.699 9.32617 -353.914 9.32617C-353.09 9.32617 -352.461 9.64648 -352.027 10.2871H-351.969C-352.059 9.79883 -352.104 9.36328 -352.104 8.98047V6.88281H-350.311V16H-351.682L-352.027 15.1504H-352.104C-352.51 15.7949 -353.129 16.1172 -353.961 16.1172ZM-353.334 14.6934C-352.877 14.6934 -352.543 14.5605 -352.332 14.2949C-352.117 14.0293 -352 13.5781 -351.98 12.9414V12.748C-351.98 12.0449 -352.09 11.541 -352.309 11.2363C-352.523 10.9316 -352.875 10.7793 -353.363 10.7793C-353.762 10.7793 -354.072 10.9492 -354.295 11.2891C-354.514 11.625 -354.623 12.1152 -354.623 12.7598C-354.623 13.4043 -354.512 13.8887 -354.289 14.2129C-354.066 14.5332 -353.748 14.6934 -353.334 14.6934ZM-347.018 12.7129C-347.018 13.3613 -346.912 13.8516 -346.701 14.1836C-346.486 14.5156 -346.139 14.6816 -345.658 14.6816C-345.182 14.6816 -344.84 14.5176 -344.633 14.1895C-344.422 13.8574 -344.316 13.3652 -344.316 12.7129C-344.316 12.0645 -344.422 11.5781 -344.633 11.2539C-344.844 10.9297 -345.189 10.7676 -345.67 10.7676C-346.146 10.7676 -346.49 10.9297 -346.701 11.2539C-346.912 11.5742 -347.018 12.0605 -347.018 12.7129ZM-342.488 12.7129C-342.488 13.7793 -342.77 14.6133 -343.332 15.2148C-343.895 15.8164 -344.678 16.1172 -345.682 16.1172C-346.311 16.1172 -346.865 15.9805 -347.346 15.707C-347.826 15.4297 -348.195 15.0332 -348.453 14.5176C-348.711 14.002 -348.84 13.4004 -348.84 12.7129C-348.84 11.6426 -348.561 10.8105 -348.002 10.2168C-347.443 9.62305 -346.658 9.32617 -345.646 9.32617C-345.018 9.32617 -344.463 9.46289 -343.982 9.73633C-343.502 10.0098 -343.133 10.4023 -342.875 10.9141C-342.617 11.4258 -342.488 12.0254 -342.488 12.7129ZM-334.965 16H-336.752V12.1738C-336.752 11.7012 -336.836 11.3477 -337.004 11.1133C-337.172 10.875 -337.439 10.7559 -337.807 10.7559C-338.307 10.7559 -338.668 10.9238 -338.891 11.2598C-339.113 11.5918 -339.225 12.1445 -339.225 12.918V16H-341.012V9.44922H-339.646L-339.406 10.2871H-339.307C-339.107 9.9707 -338.834 9.73242 -338.486 9.57227C-338.135 9.4082 -337.736 9.32617 -337.291 9.32617C-336.529 9.32617 -335.951 9.5332 -335.557 9.94727C-335.162 10.3574 -334.965 10.9512 -334.965 11.7285V16ZM-329.867 7.43359H-327.201C-325.986 7.43359 -325.105 7.60742 -324.559 7.95508C-324.008 8.29883 -323.732 8.84766 -323.732 9.60156C-323.732 10.1133 -323.854 10.5332 -324.096 10.8613C-324.334 11.1895 -324.652 11.3867 -325.051 11.4531V11.5117C-324.508 11.6328 -324.117 11.8594 -323.879 12.1914C-323.637 12.5234 -323.516 12.9648 -323.516 13.5156C-323.516 14.2969 -323.799 14.9062 -324.365 15.3438C-324.928 15.7812 -325.693 16 -326.662 16H-329.867V7.43359ZM-328.051 10.8262H-326.996C-326.504 10.8262 -326.148 10.75 -325.93 10.5977C-325.707 10.4453 -325.596 10.1934 -325.596 9.8418C-325.596 9.51367 -325.717 9.2793 -325.959 9.13867C-326.197 8.99414 -326.576 8.92188 -327.096 8.92188H-328.051V10.8262ZM-328.051 12.2676V14.5H-326.867C-326.367 14.5 -325.998 14.4043 -325.76 14.2129C-325.521 14.0215 -325.402 13.7285 -325.402 13.334C-325.402 12.623 -325.91 12.2676 -326.926 12.2676H-328.051ZM-320.521 12.7129C-320.521 13.3613 -320.416 13.8516 -320.205 14.1836C-319.99 14.5156 -319.643 14.6816 -319.162 14.6816C-318.686 14.6816 -318.344 14.5176 -318.137 14.1895C-317.926 13.8574 -317.82 13.3652 -317.82 12.7129C-317.82 12.0645 -317.926 11.5781 -318.137 11.2539C-318.348 10.9297 -318.693 10.7676 -319.174 10.7676C-319.65 10.7676 -319.994 10.9297 -320.205 11.2539C-320.416 11.5742 -320.521 12.0605 -320.521 12.7129ZM-315.992 12.7129C-315.992 13.7793 -316.273 14.6133 -316.836 15.2148C-317.398 15.8164 -318.182 16.1172 -319.186 16.1172C-319.814 16.1172 -320.369 15.9805 -320.85 15.707C-321.33 15.4297 -321.699 15.0332 -321.957 14.5176C-322.215 14.002 -322.344 13.4004 -322.344 12.7129C-322.344 11.6426 -322.064 10.8105 -321.506 10.2168C-320.947 9.62305 -320.162 9.32617 -319.15 9.32617C-318.521 9.32617 -317.967 9.46289 -317.486 9.73633C-317.006 10.0098 -316.637 10.4023 -316.379 10.9141C-316.121 11.4258 -315.992 12.0254 -315.992 12.7129ZM-309.875 16L-310.115 15.1621H-310.209C-310.4 15.4668 -310.672 15.7031 -311.023 15.8711C-311.375 16.0352 -311.775 16.1172 -312.225 16.1172C-312.994 16.1172 -313.574 15.9121 -313.965 15.502C-314.355 15.0879 -314.551 14.4941 -314.551 13.7207V9.44922H-312.764V13.2754C-312.764 13.748 -312.68 14.1035 -312.512 14.3418C-312.344 14.5762 -312.076 14.6934 -311.709 14.6934C-311.209 14.6934 -310.848 14.5273 -310.625 14.1953C-310.402 13.8594 -310.291 13.3047 -310.291 12.5312V9.44922H-308.504V16H-309.875ZM-304.842 16H-306.629V6.88281H-304.842V16ZM-300.248 10.5977C-300.627 10.5977 -300.924 10.7188 -301.139 10.9609C-301.354 11.1992 -301.477 11.5391 -301.508 11.9805H-299C-299.008 11.5391 -299.123 11.1992 -299.346 10.9609C-299.568 10.7188 -299.869 10.5977 -300.248 10.5977ZM-299.996 16.1172C-301.051 16.1172 -301.875 15.8262 -302.469 15.2441C-303.062 14.6621 -303.359 13.8379 -303.359 12.7715C-303.359 11.6738 -303.086 10.8262 -302.539 10.2285C-301.988 9.62695 -301.229 9.32617 -300.26 9.32617C-299.334 9.32617 -298.613 9.58984 -298.098 10.1172C-297.582 10.6445 -297.324 11.373 -297.324 12.3027V13.1699H-301.549C-301.529 13.6777 -301.379 14.0742 -301.098 14.3594C-300.816 14.6445 -300.422 14.7871 -299.914 14.7871C-299.52 14.7871 -299.146 14.7461 -298.795 14.6641C-298.443 14.582 -298.076 14.4512 -297.693 14.2715V15.6543C-298.006 15.8105 -298.34 15.9258 -298.695 16C-299.051 16.0781 -299.484 16.1172 -299.996 16.1172ZM-294.312 16L-296.809 9.44922H-294.939L-293.674 13.1816C-293.533 13.6543 -293.445 14.1016 -293.41 14.5234H-293.375C-293.355 14.1484 -293.268 13.7012 -293.111 13.1816L-291.852 9.44922H-289.982L-292.479 16H-294.312ZM-284.879 16L-285.225 15.1094H-285.271C-285.572 15.4883 -285.883 15.752 -286.203 15.9004C-286.52 16.0449 -286.934 16.1172 -287.445 16.1172C-288.074 16.1172 -288.57 15.9375 -288.934 15.5781C-289.293 15.2188 -289.473 14.707 -289.473 14.043C-289.473 13.3477 -289.23 12.8359 -288.746 12.5078C-288.258 12.1758 -287.523 11.9922 -286.543 11.957L-285.406 11.9219V11.6348C-285.406 10.9707 -285.746 10.6387 -286.426 10.6387C-286.949 10.6387 -287.564 10.7969 -288.271 11.1133L-288.863 9.90625C-288.109 9.51172 -287.273 9.31445 -286.355 9.31445C-285.477 9.31445 -284.803 9.50586 -284.334 9.88867C-283.865 10.2715 -283.631 10.8535 -283.631 11.6348V16H-284.879ZM-285.406 12.9648L-286.098 12.9883C-286.617 13.0039 -287.004 13.0977 -287.258 13.2695C-287.512 13.4414 -287.639 13.7031 -287.639 14.0547C-287.639 14.5586 -287.35 14.8105 -286.771 14.8105C-286.357 14.8105 -286.027 14.6914 -285.781 14.4531C-285.531 14.2148 -285.406 13.8984 -285.406 13.5039V12.9648ZM-278.129 9.32617C-277.887 9.32617 -277.686 9.34375 -277.525 9.37891L-277.66 11.0547C-277.805 11.0156 -277.98 10.9961 -278.188 10.9961C-278.758 10.9961 -279.203 11.1426 -279.523 11.4355C-279.84 11.7285 -279.998 12.1387 -279.998 12.666V16H-281.785V9.44922H-280.432L-280.168 10.5508H-280.08C-279.877 10.1836 -279.604 9.88867 -279.26 9.66602C-278.912 9.43945 -278.535 9.32617 -278.129 9.32617ZM-274.262 16.1172C-275.031 16.1172 -275.637 15.8184 -276.078 15.2207C-276.516 14.623 -276.734 13.7949 -276.734 12.7363C-276.734 11.6621 -276.512 10.8262 -276.066 10.2285C-275.617 9.62695 -275 9.32617 -274.215 9.32617C-273.391 9.32617 -272.762 9.64648 -272.328 10.2871H-272.27C-272.359 9.79883 -272.404 9.36328 -272.404 8.98047V6.88281H-270.611V16H-271.982L-272.328 15.1504H-272.404C-272.811 15.7949 -273.43 16.1172 -274.262 16.1172ZM-273.635 14.6934C-273.178 14.6934 -272.844 14.5605 -272.633 14.2949C-272.418 14.0293 -272.301 13.5781 -272.281 12.9414V12.748C-272.281 12.0449 -272.391 11.541 -272.609 11.2363C-272.824 10.9316 -273.176 10.7793 -273.664 10.7793C-274.062 10.7793 -274.373 10.9492 -274.596 11.2891C-274.814 11.625 -274.924 12.1152 -274.924 12.7598C-274.924 13.4043 -274.812 13.8887 -274.59 14.2129C-274.367 14.5332 -274.049 14.6934 -273.635 14.6934ZM-266.99 14.7402C-267.193 15.5293 -267.537 16.4648 -268.021 17.5469H-269.311C-269.057 16.5078 -268.859 15.5273 -268.719 14.6055H-267.078L-266.99 14.7402ZM-255.031 7.43359V12.9766C-255.031 13.6094 -255.174 14.1641 -255.459 14.6406C-255.74 15.1172 -256.148 15.4824 -256.684 15.7363C-257.219 15.9902 -257.852 16.1172 -258.582 16.1172C-259.684 16.1172 -260.539 15.8359 -261.148 15.2734C-261.758 14.707 -262.062 13.9336 -262.062 12.9531V7.43359H-260.252V12.6777C-260.252 13.3379 -260.119 13.8223 -259.854 14.1309C-259.588 14.4395 -259.148 14.5938 -258.535 14.5938C-257.941 14.5938 -257.512 14.4395 -257.246 14.1309C-256.977 13.8184 -256.842 13.3301 -256.842 12.666V7.43359H-255.031ZM-253.326 15.1621C-253.326 14.834 -253.238 14.5859 -253.062 14.418C-252.887 14.25 -252.631 14.166 -252.295 14.166C-251.971 14.166 -251.721 14.252 -251.545 14.4238C-251.365 14.5957 -251.275 14.8418 -251.275 15.1621C-251.275 15.4707 -251.365 15.7148 -251.545 15.8945C-251.725 16.0703 -251.975 16.1582 -252.295 16.1582C-252.623 16.1582 -252.877 16.0723 -253.057 15.9004C-253.236 15.7246 -253.326 15.4785 -253.326 15.1621ZM-242.621 16H-244.684L-246.928 12.3906L-247.695 12.9414V16H-249.512V7.43359H-247.695V11.3535L-246.98 10.3457L-244.66 7.43359H-242.645L-245.633 11.2246L-242.621 16ZM-241.936 15.1621C-241.936 14.834 -241.848 14.5859 -241.672 14.418C-241.496 14.25 -241.24 14.166 -240.904 14.166C-240.58 14.166 -240.33 14.252 -240.154 14.4238C-239.975 14.5957 -239.885 14.8418 -239.885 15.1621C-239.885 15.4707 -239.975 15.7148 -240.154 15.8945C-240.334 16.0703 -240.584 16.1582 -240.904 16.1582C-241.232 16.1582 -241.486 16.0723 -241.666 15.9004C-241.846 15.7246 -241.936 15.4785 -241.936 15.1621ZM-197.479 12.4141H-199.746V11.1309H-197.479V8.8457H-196.195V11.1309H-193.928V12.4141H-196.195V14.6699H-197.479V12.4141ZM-186.744 14.2246H-187.775V16H-189.545V14.2246H-193.201V12.9648L-189.445 7.43359H-187.775V12.8184H-186.744V14.2246ZM-189.545 12.8184V11.3652C-189.545 11.123 -189.535 10.7715 -189.516 10.3105C-189.496 9.84961 -189.48 9.58203 -189.469 9.50781H-189.516C-189.66 9.82812 -189.834 10.1406 -190.037 10.4453L-191.607 12.8184H-189.545ZM-180.129 11.7168C-180.129 13.2129 -180.375 14.3203 -180.867 15.0391C-181.355 15.7578 -182.109 16.1172 -183.129 16.1172C-184.117 16.1172 -184.863 15.7461 -185.367 15.0039C-185.867 14.2617 -186.117 13.166 -186.117 11.7168C-186.117 10.2051 -185.873 9.0918 -185.385 8.37695C-184.896 7.6582 -184.145 7.29883 -183.129 7.29883C-182.141 7.29883 -181.395 7.67383 -180.891 8.42383C-180.383 9.17383 -180.129 10.2715 -180.129 11.7168ZM-184.318 11.7168C-184.318 12.7676 -184.229 13.5215 -184.049 13.9785C-183.865 14.4316 -183.559 14.6582 -183.129 14.6582C-182.707 14.6582 -182.402 14.4277 -182.215 13.9668C-182.027 13.5059 -181.934 12.7559 -181.934 11.7168C-181.934 10.666 -182.029 9.91211 -182.221 9.45508C-182.408 8.99414 -182.711 8.76367 -183.129 8.76367C-183.555 8.76367 -183.859 8.99414 -184.043 9.45508C-184.227 9.91211 -184.318 10.666 -184.318 11.7168ZM-175.248 16L-172.031 8.96875H-176.256V7.44531H-170.109V8.58203L-173.35 16H-175.248ZM-163.254 16H-169.242V14.7402L-167.092 12.5664C-166.455 11.9141 -166.039 11.4629 -165.844 11.2129C-165.648 10.959 -165.508 10.7246 -165.422 10.5098C-165.336 10.2949 -165.293 10.0723 -165.293 9.8418C-165.293 9.49805 -165.389 9.24219 -165.58 9.07422C-165.768 8.90625 -166.02 8.82227 -166.336 8.82227C-166.668 8.82227 -166.99 8.89844 -167.303 9.05078C-167.615 9.20312 -167.941 9.41992 -168.281 9.70117L-169.266 8.53516C-168.844 8.17578 -168.494 7.92188 -168.217 7.77344C-167.939 7.625 -167.637 7.51172 -167.309 7.43359C-166.98 7.35156 -166.613 7.31055 -166.207 7.31055C-165.672 7.31055 -165.199 7.4082 -164.789 7.60352C-164.379 7.79883 -164.061 8.07227 -163.834 8.42383C-163.607 8.77539 -163.494 9.17773 -163.494 9.63086C-163.494 10.0254 -163.564 10.3965 -163.705 10.7441C-163.842 11.0879 -164.057 11.4414 -164.35 11.8047C-164.639 12.168 -165.15 12.6855 -165.885 13.3574L-166.986 14.3945V14.4766H-163.254V16ZM-156.434 11.0898C-156.434 12.7773 -156.789 14.0371 -157.5 14.8691C-158.211 15.7012 -159.287 16.1172 -160.729 16.1172C-161.236 16.1172 -161.621 16.0898 -161.883 16.0352V14.582C-161.555 14.6641 -161.211 14.7051 -160.852 14.7051C-160.246 14.7051 -159.748 14.6172 -159.357 14.4414C-158.967 14.2617 -158.668 13.9824 -158.461 13.6035C-158.254 13.2207 -158.135 12.6953 -158.104 12.0273H-158.174C-158.4 12.3945 -158.662 12.6523 -158.959 12.8008C-159.256 12.9492 -159.627 13.0234 -160.072 13.0234C-160.818 13.0234 -161.406 12.7852 -161.836 12.3086C-162.266 11.8281 -162.48 11.1621 -162.48 10.3105C-162.48 9.39258 -162.221 8.66797 -161.701 8.13672C-161.178 7.60156 -160.467 7.33398 -159.568 7.33398C-158.936 7.33398 -158.383 7.48242 -157.91 7.7793C-157.434 8.07617 -157.068 8.50781 -156.814 9.07422C-156.561 9.63672 -156.434 10.3086 -156.434 11.0898ZM-159.533 8.78711C-159.908 8.78711 -160.201 8.91602 -160.412 9.17383C-160.623 9.43164 -160.729 9.80273 -160.729 10.2871C-160.729 10.7012 -160.633 11.0293 -160.441 11.2715C-160.25 11.5137 -159.959 11.6348 -159.568 11.6348C-159.201 11.6348 -158.887 11.5156 -158.625 11.2773C-158.363 11.0352 -158.232 10.7578 -158.232 10.4453C-158.232 9.98047 -158.355 9.58789 -158.602 9.26758C-158.844 8.94727 -159.154 8.78711 -159.533 8.78711ZM-147.938 16H-149.748V11.043L-149.73 10.2285L-149.701 9.33789C-150.002 9.63867 -150.211 9.83594 -150.328 9.92969L-151.312 10.7207L-152.186 9.63086L-149.426 7.43359H-147.938V16ZM-139.904 9.34961C-139.904 9.88477 -140.066 10.3398 -140.391 10.7148C-140.715 11.0898 -141.17 11.3477 -141.756 11.4883V11.5234C-141.064 11.6094 -140.541 11.8203 -140.186 12.1562C-139.83 12.4883 -139.652 12.9375 -139.652 13.5039C-139.652 14.3281 -139.951 14.9707 -140.549 15.4316C-141.146 15.8887 -142 16.1172 -143.109 16.1172C-144.039 16.1172 -144.863 15.9629 -145.582 15.6543V14.1133C-145.25 14.2812 -144.885 14.418 -144.486 14.5234C-144.088 14.6289 -143.693 14.6816 -143.303 14.6816C-142.705 14.6816 -142.264 14.5801 -141.979 14.377C-141.693 14.1738 -141.551 13.8477 -141.551 13.3984C-141.551 12.9961 -141.715 12.7109 -142.043 12.543C-142.371 12.375 -142.895 12.291 -143.613 12.291H-144.264V10.9023H-143.602C-142.938 10.9023 -142.453 10.8164 -142.148 10.6445C-141.84 10.4688 -141.686 10.1699 -141.686 9.74805C-141.686 9.09961 -142.092 8.77539 -142.904 8.77539C-143.186 8.77539 -143.473 8.82227 -143.766 8.91602C-144.055 9.00977 -144.377 9.17188 -144.732 9.40234L-145.57 8.1543C-144.789 7.5918 -143.857 7.31055 -142.775 7.31055C-141.889 7.31055 -141.189 7.49023 -140.678 7.84961C-140.162 8.20898 -139.904 8.70898 -139.904 9.34961ZM-134.227 16H-136.037V11.043L-136.02 10.2285L-135.99 9.33789C-136.291 9.63867 -136.5 9.83594 -136.617 9.92969L-137.602 10.7207L-138.475 9.63086L-135.715 7.43359H-134.227V16ZM-128.789 12.3613C-128.789 10.666 -128.432 9.4043 -127.717 8.57617C-126.998 7.74805 -125.924 7.33398 -124.494 7.33398C-124.006 7.33398 -123.623 7.36328 -123.346 7.42188V8.86914C-123.693 8.79102 -124.037 8.75195 -124.377 8.75195C-124.998 8.75195 -125.506 8.8457 -125.9 9.0332C-126.291 9.2207 -126.584 9.49805 -126.779 9.86523C-126.975 10.2324 -127.09 10.7539 -127.125 11.4297H-127.049C-126.662 10.7656 -126.043 10.4336 -125.191 10.4336C-124.426 10.4336 -123.826 10.6738 -123.393 11.1543C-122.959 11.6348 -122.742 12.2988 -122.742 13.1465C-122.742 14.0605 -123 14.7852 -123.516 15.3203C-124.031 15.8516 -124.746 16.1172 -125.66 16.1172C-126.293 16.1172 -126.846 15.9707 -127.318 15.6777C-127.787 15.3848 -128.15 14.957 -128.408 14.3945C-128.662 13.832 -128.789 13.1543 -128.789 12.3613ZM-125.695 14.6699C-125.309 14.6699 -125.012 14.541 -124.805 14.2832C-124.598 14.0215 -124.494 13.6504 -124.494 13.1699C-124.494 12.752 -124.592 12.4238 -124.787 12.1855C-124.979 11.9434 -125.27 11.8223 -125.66 11.8223C-126.027 11.8223 -126.342 11.9414 -126.604 12.1797C-126.861 12.418 -126.99 12.6953 -126.99 13.0117C-126.99 13.4766 -126.869 13.8691 -126.627 14.1895C-126.381 14.5098 -126.07 14.6699 -125.695 14.6699ZM-116.221 9.34961C-116.221 9.88477 -116.383 10.3398 -116.707 10.7148C-117.031 11.0898 -117.486 11.3477 -118.072 11.4883V11.5234C-117.381 11.6094 -116.857 11.8203 -116.502 12.1562C-116.146 12.4883 -115.969 12.9375 -115.969 13.5039C-115.969 14.3281 -116.268 14.9707 -116.865 15.4316C-117.463 15.8887 -118.316 16.1172 -119.426 16.1172C-120.355 16.1172 -121.18 15.9629 -121.898 15.6543V14.1133C-121.566 14.2812 -121.201 14.418 -120.803 14.5234C-120.404 14.6289 -120.01 14.6816 -119.619 14.6816C-119.021 14.6816 -118.58 14.5801 -118.295 14.377C-118.01 14.1738 -117.867 13.8477 -117.867 13.3984C-117.867 12.9961 -118.031 12.7109 -118.359 12.543C-118.688 12.375 -119.211 12.291 -119.93 12.291H-120.58V10.9023H-119.918C-119.254 10.9023 -118.77 10.8164 -118.465 10.6445C-118.156 10.4688 -118.002 10.1699 -118.002 9.74805C-118.002 9.09961 -118.408 8.77539 -119.221 8.77539C-119.502 8.77539 -119.789 8.82227 -120.082 8.91602C-120.371 9.00977 -120.693 9.17188 -121.049 9.40234L-121.887 8.1543C-121.105 7.5918 -120.174 7.31055 -119.092 7.31055C-118.205 7.31055 -117.506 7.49023 -116.994 7.84961C-116.479 8.20898 -116.221 8.70898 -116.221 9.34961ZM-114.17 16L-110.953 8.96875H-115.178V7.44531H-109.031V8.58203L-112.271 16H-114.17ZM-103.746 7.43359L-106.939 16H-108.562L-105.369 7.43359H-103.746ZM-100.904 12.4141H-103.172V11.1309H-100.904V8.8457H-99.6211V11.1309H-97.3535V12.4141H-99.6211V14.6699H-100.904V12.4141ZM-90.1699 14.2246H-91.2012V16H-92.9707V14.2246H-96.627V12.9648L-92.8711 7.43359H-91.2012V12.8184H-90.1699V14.2246ZM-92.9707 12.8184V11.3652C-92.9707 11.123 -92.9609 10.7715 -92.9414 10.3105C-92.9219 9.84961 -92.9062 9.58203 -92.8945 9.50781H-92.9414C-93.0859 9.82812 -93.2598 10.1406 -93.4629 10.4453L-95.0332 12.8184H-92.9707ZM-83.5547 11.7168C-83.5547 13.2129 -83.8008 14.3203 -84.293 15.0391C-84.7812 15.7578 -85.5352 16.1172 -86.5547 16.1172C-87.543 16.1172 -88.2891 15.7461 -88.793 15.0039C-89.293 14.2617 -89.543 13.166 -89.543 11.7168C-89.543 10.2051 -89.2988 9.0918 -88.8105 8.37695C-88.3223 7.6582 -87.5703 7.29883 -86.5547 7.29883C-85.5664 7.29883 -84.8203 7.67383 -84.3164 8.42383C-83.8086 9.17383 -83.5547 10.2715 -83.5547 11.7168ZM-87.7441 11.7168C-87.7441 12.7676 -87.6543 13.5215 -87.4746 13.9785C-87.291 14.4316 -86.9844 14.6582 -86.5547 14.6582C-86.1328 14.6582 -85.8281 14.4277 -85.6406 13.9668C-85.4531 13.5059 -85.3594 12.7559 -85.3594 11.7168C-85.3594 10.666 -85.4551 9.91211 -85.6465 9.45508C-85.834 8.99414 -86.1367 8.76367 -86.5547 8.76367C-86.9805 8.76367 -87.2852 8.99414 -87.4688 9.45508C-87.6523 9.91211 -87.7441 10.666 -87.7441 11.7168ZM-78.6738 16L-75.457 8.96875H-79.6816V7.44531H-73.5352V8.58203L-76.7754 16H-78.6738ZM-66.6797 16H-72.668V14.7402L-70.5176 12.5664C-69.8809 11.9141 -69.4648 11.4629 -69.2695 11.2129C-69.0742 10.959 -68.9336 10.7246 -68.8477 10.5098C-68.7617 10.2949 -68.7188 10.0723 -68.7188 9.8418C-68.7188 9.49805 -68.8145 9.24219 -69.0059 9.07422C-69.1934 8.90625 -69.4453 8.82227 -69.7617 8.82227C-70.0938 8.82227 -70.416 8.89844 -70.7285 9.05078C-71.041 9.20312 -71.3672 9.41992 -71.707 9.70117L-72.6914 8.53516C-72.2695 8.17578 -71.9199 7.92188 -71.6426 7.77344C-71.3652 7.625 -71.0625 7.51172 -70.7344 7.43359C-70.4062 7.35156 -70.0391 7.31055 -69.6328 7.31055C-69.0977 7.31055 -68.625 7.4082 -68.2148 7.60352C-67.8047 7.79883 -67.4863 8.07227 -67.2598 8.42383C-67.0332 8.77539 -66.9199 9.17773 -66.9199 9.63086C-66.9199 10.0254 -66.9902 10.3965 -67.1309 10.7441C-67.2676 11.0879 -67.4824 11.4414 -67.7754 11.8047C-68.0645 12.168 -68.5762 12.6855 -69.3105 13.3574L-70.4121 14.3945V14.4766H-66.6797V16ZM-65.8711 12.3613C-65.8711 10.666 -65.5137 9.4043 -64.7988 8.57617C-64.0801 7.74805 -63.0059 7.33398 -61.5762 7.33398C-61.0879 7.33398 -60.7051 7.36328 -60.4277 7.42188V8.86914C-60.7754 8.79102 -61.1191 8.75195 -61.459 8.75195C-62.0801 8.75195 -62.5879 8.8457 -62.9824 9.0332C-63.373 9.2207 -63.666 9.49805 -63.8613 9.86523C-64.0566 10.2324 -64.1719 10.7539 -64.207 11.4297H-64.1309C-63.7441 10.7656 -63.125 10.4336 -62.2734 10.4336C-61.5078 10.4336 -60.9082 10.6738 -60.4746 11.1543C-60.041 11.6348 -59.8242 12.2988 -59.8242 13.1465C-59.8242 14.0605 -60.082 14.7852 -60.5977 15.3203C-61.1133 15.8516 -61.8281 16.1172 -62.7422 16.1172C-63.375 16.1172 -63.9277 15.9707 -64.4004 15.6777C-64.8691 15.3848 -65.2324 14.957 -65.4902 14.3945C-65.7441 13.832 -65.8711 13.1543 -65.8711 12.3613ZM-62.7773 14.6699C-62.3906 14.6699 -62.0938 14.541 -61.8867 14.2832C-61.6797 14.0215 -61.5762 13.6504 -61.5762 13.1699C-61.5762 12.752 -61.6738 12.4238 -61.8691 12.1855C-62.0605 11.9434 -62.3516 11.8223 -62.7422 11.8223C-63.1094 11.8223 -63.4238 11.9414 -63.6855 12.1797C-63.9434 12.418 -64.0723 12.6953 -64.0723 13.0117C-64.0723 13.4766 -63.9512 13.8691 -63.709 14.1895C-63.4629 14.5098 -63.1523 14.6699 -62.7773 14.6699ZM-49.6582 14.2246H-50.6895V16H-52.459V14.2246H-56.1152V12.9648L-52.3594 7.43359H-50.6895V12.8184H-49.6582V14.2246ZM-52.459 12.8184V11.3652C-52.459 11.123 -52.4492 10.7715 -52.4297 10.3105C-52.4102 9.84961 -52.3945 9.58203 -52.3828 9.50781H-52.4297C-52.5742 9.82812 -52.748 10.1406 -52.9512 10.4453L-54.5215 12.8184H-52.459ZM-45.8672 10.5273C-45.0391 10.5273 -44.3809 10.7598 -43.8926 11.2246C-43.4004 11.6895 -43.1543 12.3262 -43.1543 13.1348C-43.1543 14.0918 -43.4492 14.8281 -44.0391 15.3438C-44.6289 15.8594 -45.4727 16.1172 -46.5703 16.1172C-47.5234 16.1172 -48.293 15.9629 -48.8789 15.6543V14.0898C-48.5703 14.2539 -48.2109 14.3887 -47.8008 14.4941C-47.3906 14.5957 -47.002 14.6465 -46.6348 14.6465C-45.5293 14.6465 -44.9766 14.1934 -44.9766 13.2871C-44.9766 12.4238 -45.5488 11.9922 -46.6934 11.9922C-46.9004 11.9922 -47.1289 12.0137 -47.3789 12.0566C-47.6289 12.0957 -47.832 12.1387 -47.9883 12.1855L-48.709 11.7988L-48.3867 7.43359H-43.7402V8.96875H-46.7988L-46.957 10.6504L-46.752 10.6094C-46.5137 10.5547 -46.2188 10.5273 -45.8672 10.5273ZM-39.1758 7.32227C-38.3555 7.32227 -37.6953 7.50977 -37.1953 7.88477C-36.6914 8.25586 -36.4395 8.75781 -36.4395 9.39062C-36.4395 9.82812 -36.5605 10.2188 -36.8027 10.5625C-37.0449 10.9023 -37.4355 11.207 -37.9746 11.4766C-37.334 11.8203 -36.875 12.1797 -36.5977 12.5547C-36.3164 12.9258 -36.1758 13.334 -36.1758 13.7793C-36.1758 14.4824 -36.4512 15.0488 -37.002 15.4785C-37.5527 15.9043 -38.2773 16.1172 -39.1758 16.1172C-40.1133 16.1172 -40.8496 15.918 -41.3848 15.5195C-41.9199 15.1211 -42.1875 14.5566 -42.1875 13.8262C-42.1875 13.3379 -42.0586 12.9043 -41.8008 12.5254C-41.5391 12.1465 -41.1211 11.8125 -40.5469 11.5234C-41.0352 11.2148 -41.3867 10.8848 -41.6016 10.5332C-41.8164 10.1816 -41.9238 9.79688 -41.9238 9.37891C-41.9238 8.76562 -41.6699 8.26953 -41.1621 7.89062C-40.6543 7.51172 -39.9922 7.32227 -39.1758 7.32227ZM-40.5117 13.7207C-40.5117 14.0566 -40.3945 14.3184 -40.1602 14.5059C-39.9258 14.6934 -39.6055 14.7871 -39.1992 14.7871C-38.75 14.7871 -38.4141 14.6914 -38.1914 14.5C-37.9688 14.3047 -37.8574 14.0488 -37.8574 13.7324C-37.8574 13.4707 -37.9688 13.2266 -38.1914 13C-38.4102 12.7695 -38.7676 12.5254 -39.2637 12.2676C-40.0957 12.6504 -40.5117 13.1348 -40.5117 13.7207ZM-39.1875 8.64648C-39.4961 8.64648 -39.7461 8.72656 -39.9375 8.88672C-40.125 9.04297 -40.2188 9.25391 -40.2188 9.51953C-40.2188 9.75391 -40.1445 9.96484 -39.9961 10.1523C-39.8438 10.3359 -39.5703 10.5254 -39.1758 10.7207C-38.793 10.541 -38.5254 10.3574 -38.373 10.1699C-38.2207 9.98242 -38.1445 9.76562 -38.1445 9.51953C-38.1445 9.25 -38.2422 9.03711 -38.4375 8.88086C-38.6328 8.72461 -38.8828 8.64648 -39.1875 8.64648ZM-31.3066 16L-28.0898 8.96875H-32.3145V7.44531H-26.168V8.58203L-29.4082 16H-31.3066ZM-22.3477 7.32227C-21.5273 7.32227 -20.8672 7.50977 -20.3672 7.88477C-19.8633 8.25586 -19.6113 8.75781 -19.6113 9.39062C-19.6113 9.82812 -19.7324 10.2188 -19.9746 10.5625C-20.2168 10.9023 -20.6074 11.207 -21.1465 11.4766C-20.5059 11.8203 -20.0469 12.1797 -19.7695 12.5547C-19.4883 12.9258 -19.3477 13.334 -19.3477 13.7793C-19.3477 14.4824 -19.623 15.0488 -20.1738 15.4785C-20.7246 15.9043 -21.4492 16.1172 -22.3477 16.1172C-23.2852 16.1172 -24.0215 15.918 -24.5566 15.5195C-25.0918 15.1211 -25.3594 14.5566 -25.3594 13.8262C-25.3594 13.3379 -25.2305 12.9043 -24.9727 12.5254C-24.7109 12.1465 -24.293 11.8125 -23.7188 11.5234C-24.207 11.2148 -24.5586 10.8848 -24.7734 10.5332C-24.9883 10.1816 -25.0957 9.79688 -25.0957 9.37891C-25.0957 8.76562 -24.8418 8.26953 -24.334 7.89062C-23.8262 7.51172 -23.1641 7.32227 -22.3477 7.32227ZM-23.6836 13.7207C-23.6836 14.0566 -23.5664 14.3184 -23.332 14.5059C-23.0977 14.6934 -22.7773 14.7871 -22.3711 14.7871C-21.9219 14.7871 -21.5859 14.6914 -21.3633 14.5C-21.1406 14.3047 -21.0293 14.0488 -21.0293 13.7324C-21.0293 13.4707 -21.1406 13.2266 -21.3633 13C-21.582 12.7695 -21.9395 12.5254 -22.4355 12.2676C-23.2676 12.6504 -23.6836 13.1348 -23.6836 13.7207ZM-22.3594 8.64648C-22.668 8.64648 -22.918 8.72656 -23.1094 8.88672C-23.2969 9.04297 -23.3906 9.25391 -23.3906 9.51953C-23.3906 9.75391 -23.3164 9.96484 -23.168 10.1523C-23.0156 10.3359 -22.7422 10.5254 -22.3477 10.7207C-21.9648 10.541 -21.6973 10.3574 -21.5449 10.1699C-21.3926 9.98242 -21.3164 9.76562 -21.3164 9.51953C-21.3164 9.25 -21.4141 9.03711 -21.6094 8.88086C-21.8047 8.72461 -22.0547 8.64648 -22.3594 8.64648ZM-12.457 16H-18.4453V14.7402L-16.2949 12.5664C-15.6582 11.9141 -15.2422 11.4629 -15.0469 11.2129C-14.8516 10.959 -14.7109 10.7246 -14.625 10.5098C-14.5391 10.2949 -14.4961 10.0723 -14.4961 9.8418C-14.4961 9.49805 -14.5918 9.24219 -14.7832 9.07422C-14.9707 8.90625 -15.2227 8.82227 -15.5391 8.82227C-15.8711 8.82227 -16.1934 8.89844 -16.5059 9.05078C-16.8184 9.20312 -17.1445 9.41992 -17.4844 9.70117L-18.4688 8.53516C-18.0469 8.17578 -17.6973 7.92188 -17.4199 7.77344C-17.1426 7.625 -16.8398 7.51172 -16.5117 7.43359C-16.1836 7.35156 -15.8164 7.31055 -15.4102 7.31055C-14.875 7.31055 -14.4023 7.4082 -13.9922 7.60352C-13.582 7.79883 -13.2637 8.07227 -13.0371 8.42383C-12.8105 8.77539 -12.6973 9.17773 -12.6973 9.63086C-12.6973 10.0254 -12.7676 10.3965 -12.9082 10.7441C-13.0449 11.0879 -13.2598 11.4414 -13.5527 11.8047C-13.8418 12.168 -14.3535 12.6855 -15.0879 13.3574L-16.1895 14.3945V14.4766H-12.457V16ZM29.2285 12.7129C29.2285 13.3613 29.334 13.8516 29.5449 14.1836C29.7598 14.5156 30.1074 14.6816 30.5879 14.6816C31.0645 14.6816 31.4062 14.5176 31.6133 14.1895C31.8242 13.8574 31.9297 13.3652 31.9297 12.7129C31.9297 12.0645 31.8242 11.5781 31.6133 11.2539C31.4023 10.9297 31.0566 10.7676 30.5762 10.7676C30.0996 10.7676 29.7559 10.9297 29.5449 11.2539C29.334 11.5742 29.2285 12.0605 29.2285 12.7129ZM33.7578 12.7129C33.7578 13.7793 33.4766 14.6133 32.9141 15.2148C32.3516 15.8164 31.5684 16.1172 30.5645 16.1172C29.9355 16.1172 29.3809 15.9805 28.9004 15.707C28.4199 15.4297 28.0508 15.0332 27.793 14.5176C27.5352 14.002 27.4062 13.4004 27.4062 12.7129C27.4062 11.6426 27.6855 10.8105 28.2441 10.2168C28.8027 9.62305 29.5879 9.32617 30.5996 9.32617C31.2285 9.32617 31.7832 9.46289 32.2637 9.73633C32.7441 10.0098 33.1133 10.4023 33.3711 10.9141C33.6289 11.4258 33.7578 12.0254 33.7578 12.7129ZM38.8555 10.791H37.3086V16H35.5215V10.791H34.5371V9.92969L35.5215 9.44922V8.96875C35.5215 8.22266 35.7051 7.67773 36.0723 7.33398C36.4395 6.99023 37.0273 6.81836 37.8359 6.81836C38.4531 6.81836 39.002 6.91016 39.4824 7.09375L39.0254 8.40625C38.666 8.29297 38.334 8.23633 38.0293 8.23633C37.7754 8.23633 37.5918 8.3125 37.4785 8.46484C37.3652 8.61328 37.3086 8.80469 37.3086 9.03906V9.44922H38.8555V10.791ZM43.502 10.791H41.9551V16H40.168V10.791H39.1836V9.92969L40.168 9.44922V8.96875C40.168 8.22266 40.3516 7.67773 40.7188 7.33398C41.0859 6.99023 41.6738 6.81836 42.4824 6.81836C43.0996 6.81836 43.6484 6.91016 44.1289 7.09375L43.6719 8.40625C43.3125 8.29297 42.9805 8.23633 42.6758 8.23633C42.4219 8.23633 42.2383 8.3125 42.125 8.46484C42.0117 8.61328 41.9551 8.80469 41.9551 9.03906V9.44922H43.502V10.791ZM44.4336 7.75586C44.4336 7.17383 44.7578 6.88281 45.4062 6.88281C46.0547 6.88281 46.3789 7.17383 46.3789 7.75586C46.3789 8.0332 46.2969 8.25 46.1328 8.40625C45.9727 8.55859 45.7305 8.63477 45.4062 8.63477C44.7578 8.63477 44.4336 8.3418 44.4336 7.75586ZM46.2969 16H44.5098V9.44922H46.2969V16ZM50.832 16.1172C48.793 16.1172 47.7734 14.998 47.7734 12.7598C47.7734 11.6465 48.0508 10.7969 48.6055 10.2109C49.1602 9.62109 49.9551 9.32617 50.9902 9.32617C51.748 9.32617 52.4277 9.47461 53.0293 9.77148L52.502 11.1543C52.2207 11.041 51.959 10.9492 51.7168 10.8789C51.4746 10.8047 51.2324 10.7676 50.9902 10.7676C50.0605 10.7676 49.5957 11.4277 49.5957 12.748C49.5957 14.0293 50.0605 14.6699 50.9902 14.6699C51.334 14.6699 51.6523 14.625 51.9453 14.5352C52.2383 14.4414 52.5312 14.2969 52.8242 14.1016V15.6309C52.5352 15.8145 52.2422 15.9414 51.9453 16.0117C51.6523 16.082 51.2812 16.1172 50.832 16.1172ZM57.0605 10.5977C56.6816 10.5977 56.3848 10.7188 56.1699 10.9609C55.9551 11.1992 55.832 11.5391 55.8008 11.9805H58.3086C58.3008 11.5391 58.1855 11.1992 57.9629 10.9609C57.7402 10.7188 57.4395 10.5977 57.0605 10.5977ZM57.3125 16.1172C56.2578 16.1172 55.4336 15.8262 54.8398 15.2441C54.2461 14.6621 53.9492 13.8379 53.9492 12.7715C53.9492 11.6738 54.2227 10.8262 54.7695 10.2285C55.3203 9.62695 56.0801 9.32617 57.0488 9.32617C57.9746 9.32617 58.6953 9.58984 59.2109 10.1172C59.7266 10.6445 59.9844 11.373 59.9844 12.3027V13.1699H55.7598C55.7793 13.6777 55.9297 14.0742 56.2109 14.3594C56.4922 14.6445 56.8867 14.7871 57.3945 14.7871C57.7891 14.7871 58.1621 14.7461 58.5137 14.6641C58.8652 14.582 59.2324 14.4512 59.6152 14.2715V15.6543C59.3027 15.8105 58.9688 15.9258 58.6133 16C58.2578 16.0781 57.8242 16.1172 57.3125 16.1172ZM70.666 11.5938C70.666 12.1562 70.5762 12.6719 70.3965 13.1406C70.2168 13.6055 69.9629 13.9707 69.6348 14.2363C69.3066 14.502 68.9258 14.6348 68.4922 14.6348C68.2031 14.6348 67.9473 14.5664 67.7246 14.4297C67.502 14.2891 67.3418 14.1055 67.2441 13.8789H67.1504C66.7285 14.3828 66.1914 14.6348 65.5391 14.6348C64.8477 14.6348 64.3027 14.4277 63.9043 14.0137C63.5059 13.5957 63.3066 13.0254 63.3066 12.3027C63.3066 11.4785 63.5684 10.8145 64.0918 10.3105C64.6152 9.80664 65.2988 9.55469 66.1426 9.55469C66.4785 9.55469 66.8477 9.58789 67.25 9.6543C67.6562 9.7168 67.9902 9.79297 68.252 9.88281L68.1172 12.748C68.1172 13.291 68.2656 13.5625 68.5625 13.5625C68.8125 13.5625 69.0117 13.3809 69.1602 13.0176C69.3086 12.6504 69.3828 12.1719 69.3828 11.582C69.3828 10.9531 69.252 10.3984 68.9902 9.91797C68.7285 9.43359 68.3594 9.06445 67.8828 8.81055C67.4102 8.55664 66.8691 8.42969 66.2598 8.42969C65.4707 8.42969 64.7852 8.5918 64.2031 8.91602C63.6211 9.24023 63.1738 9.70898 62.8613 10.3223C62.5527 10.9316 62.3984 11.6367 62.3984 12.4375C62.3984 13.5156 62.6855 14.3438 63.2598 14.9219C63.8379 15.4961 64.6738 15.7832 65.7676 15.7832C66.1816 15.7832 66.6367 15.7383 67.1328 15.6484C67.6289 15.5547 68.1172 15.4199 68.5977 15.2441V16.3691C67.7617 16.7246 66.834 16.9023 65.8145 16.9023C64.3301 16.9023 63.1719 16.5117 62.3398 15.7305C61.5117 14.9492 61.0977 13.8633 61.0977 12.4727C61.0977 11.5078 61.3086 10.6328 61.7305 9.84766C62.1562 9.05859 62.7598 8.44141 63.541 7.99609C64.3262 7.54688 65.2285 7.32227 66.248 7.32227C67.1074 7.32227 67.875 7.49805 68.5508 7.84961C69.2266 8.20117 69.748 8.70117 70.1152 9.34961C70.4824 9.99805 70.666 10.7461 70.666 11.5938ZM64.666 12.3262C64.666 13.1504 65.002 13.5625 65.6738 13.5625C66.0254 13.5625 66.293 13.4395 66.4766 13.1934C66.6602 12.9434 66.7715 12.5391 66.8105 11.9805L66.8867 10.6855C66.6875 10.6426 66.4629 10.6211 66.2129 10.6211C65.7246 10.6211 65.3438 10.7734 65.0703 11.0781C64.8008 11.3828 64.666 11.7988 64.666 12.3262ZM78.0723 16H76.2852V12.1738C76.2852 11.7012 76.2051 11.3477 76.0449 11.1133C75.8887 10.875 75.6406 10.7559 75.3008 10.7559C74.8438 10.7559 74.5117 10.9238 74.3047 11.2598C74.0977 11.5957 73.9941 12.1484 73.9941 12.918V16H72.207V9.44922H73.5723L73.8125 10.2871H73.9121C74.0879 9.98633 74.3418 9.75195 74.6738 9.58398C75.0059 9.41211 75.3867 9.32617 75.8164 9.32617C76.7969 9.32617 77.4609 9.64648 77.8086 10.2871H77.9668C78.1426 9.98242 78.4004 9.74609 78.7402 9.57812C79.084 9.41016 79.4707 9.32617 79.9004 9.32617C80.6426 9.32617 81.2031 9.51758 81.582 9.90039C81.9648 10.2793 82.1562 10.8887 82.1562 11.7285V16H80.3633V12.1738C80.3633 11.7012 80.2832 11.3477 80.123 11.1133C79.9668 10.875 79.7188 10.7559 79.3789 10.7559C78.9414 10.7559 78.6133 10.9121 78.3945 11.2246C78.1797 11.5371 78.0723 12.0332 78.0723 12.7129V16ZM83.9199 7.75586C83.9199 7.17383 84.2441 6.88281 84.8926 6.88281C85.541 6.88281 85.8652 7.17383 85.8652 7.75586C85.8652 8.0332 85.7832 8.25 85.6191 8.40625C85.459 8.55859 85.2168 8.63477 84.8926 8.63477C84.2441 8.63477 83.9199 8.3418 83.9199 7.75586ZM85.7832 16H83.9961V9.44922H85.7832V16ZM93.7109 16H91.9238V12.1738C91.9238 11.7012 91.8398 11.3477 91.6719 11.1133C91.5039 10.875 91.2363 10.7559 90.8691 10.7559C90.3691 10.7559 90.0078 10.9238 89.7852 11.2598C89.5625 11.5918 89.4512 12.1445 89.4512 12.918V16H87.6641V9.44922H89.0293L89.2695 10.2871H89.3691C89.5684 9.9707 89.8418 9.73242 90.1895 9.57227C90.541 9.4082 90.9395 9.32617 91.3848 9.32617C92.1465 9.32617 92.7246 9.5332 93.1191 9.94727C93.5137 10.3574 93.7109 10.9512 93.7109 11.7285V16ZM97.625 16.1172C96.8555 16.1172 96.25 15.8184 95.8086 15.2207C95.3711 14.623 95.1523 13.7949 95.1523 12.7363C95.1523 11.6621 95.375 10.8262 95.8203 10.2285C96.2695 9.62695 96.8867 9.32617 97.6719 9.32617C98.4961 9.32617 99.125 9.64648 99.5586 10.2871H99.6172C99.5273 9.79883 99.4824 9.36328 99.4824 8.98047V6.88281H101.275V16H99.9043L99.5586 15.1504H99.4824C99.0762 15.7949 98.457 16.1172 97.625 16.1172ZM98.252 14.6934C98.709 14.6934 99.043 14.5605 99.2539 14.2949C99.4688 14.0293 99.5859 13.5781 99.6055 12.9414V12.748C99.6055 12.0449 99.4961 11.541 99.2773 11.2363C99.0625 10.9316 98.7109 10.7793 98.2227 10.7793C97.8242 10.7793 97.5137 10.9492 97.291 11.2891C97.0723 11.625 96.9629 12.1152 96.9629 12.7598C96.9629 13.4043 97.0742 13.8887 97.2969 14.2129C97.5195 14.5332 97.8379 14.6934 98.252 14.6934ZM106.789 9.32617C107.562 9.32617 108.168 9.62891 108.605 10.2344C109.043 10.8359 109.262 11.6621 109.262 12.7129C109.262 13.7949 109.035 14.6328 108.582 15.2266C108.133 15.8203 107.52 16.1172 106.742 16.1172C105.973 16.1172 105.369 15.8379 104.932 15.2793H104.809L104.51 16H103.145V6.88281H104.932V9.00391C104.932 9.27344 104.908 9.70508 104.861 10.2988H104.932C105.35 9.65039 105.969 9.32617 106.789 9.32617ZM106.215 10.7559C105.773 10.7559 105.451 10.8926 105.248 11.166C105.045 11.4355 104.939 11.8828 104.932 12.5078V12.7012C104.932 13.4043 105.035 13.9082 105.242 14.2129C105.453 14.5176 105.785 14.6699 106.238 14.6699C106.605 14.6699 106.896 14.502 107.111 14.166C107.33 13.8262 107.439 13.334 107.439 12.6895C107.439 12.0449 107.33 11.5625 107.111 11.2422C106.893 10.918 106.594 10.7559 106.215 10.7559ZM112.525 16H110.738V6.88281H112.525V16ZM114.33 7.75586C114.33 7.17383 114.654 6.88281 115.303 6.88281C115.951 6.88281 116.275 7.17383 116.275 7.75586C116.275 8.0332 116.193 8.25 116.029 8.40625C115.869 8.55859 115.627 8.63477 115.303 8.63477C114.654 8.63477 114.33 8.3418 114.33 7.75586ZM116.193 16H114.406V9.44922H116.193V16ZM122.645 14.0547C122.645 14.7266 122.41 15.2383 121.941 15.5898C121.477 15.9414 120.779 16.1172 119.85 16.1172C119.373 16.1172 118.967 16.084 118.631 16.0176C118.295 15.9551 117.98 15.8613 117.688 15.7363V14.2598C118.02 14.416 118.393 14.5469 118.807 14.6523C119.225 14.7578 119.592 14.8105 119.908 14.8105C120.557 14.8105 120.881 14.623 120.881 14.248C120.881 14.1074 120.838 13.9941 120.752 13.9082C120.666 13.8184 120.518 13.7188 120.307 13.6094C120.096 13.4961 119.814 13.3652 119.463 13.2168C118.959 13.0059 118.588 12.8105 118.35 12.6309C118.115 12.4512 117.943 12.2461 117.834 12.0156C117.729 11.7812 117.676 11.4941 117.676 11.1543C117.676 10.5723 117.9 10.123 118.35 9.80664C118.803 9.48633 119.443 9.32617 120.271 9.32617C121.061 9.32617 121.828 9.49805 122.574 9.8418L122.035 11.1309C121.707 10.9902 121.4 10.875 121.115 10.7852C120.83 10.6953 120.539 10.6504 120.242 10.6504C119.715 10.6504 119.451 10.793 119.451 11.0781C119.451 11.2383 119.535 11.377 119.703 11.4941C119.875 11.6113 120.248 11.7852 120.822 12.0156C121.334 12.2227 121.709 12.416 121.947 12.5957C122.186 12.7754 122.361 12.9824 122.475 13.2168C122.588 13.4512 122.645 13.7305 122.645 14.0547ZM126.799 14.6934C127.111 14.6934 127.486 14.625 127.924 14.4883V15.8184C127.479 16.0176 126.932 16.1172 126.283 16.1172C125.568 16.1172 125.047 15.9375 124.719 15.5781C124.395 15.2148 124.232 14.6719 124.232 13.9492V10.791H123.377V10.0352L124.361 9.4375L124.877 8.05469H126.02V9.44922H127.854V10.791H126.02V13.9492C126.02 14.2031 126.09 14.3906 126.23 14.5117C126.375 14.6328 126.564 14.6934 126.799 14.6934ZM131.967 10.5977C131.588 10.5977 131.291 10.7188 131.076 10.9609C130.861 11.1992 130.738 11.5391 130.707 11.9805H133.215C133.207 11.5391 133.092 11.1992 132.869 10.9609C132.646 10.7188 132.346 10.5977 131.967 10.5977ZM132.219 16.1172C131.164 16.1172 130.34 15.8262 129.746 15.2441C129.152 14.6621 128.855 13.8379 128.855 12.7715C128.855 11.6738 129.129 10.8262 129.676 10.2285C130.227 9.62695 130.986 9.32617 131.955 9.32617C132.881 9.32617 133.602 9.58984 134.117 10.1172C134.633 10.6445 134.891 11.373 134.891 12.3027V13.1699H130.666C130.686 13.6777 130.836 14.0742 131.117 14.3594C131.398 14.6445 131.793 14.7871 132.301 14.7871C132.695 14.7871 133.068 14.7461 133.42 14.6641C133.771 14.582 134.139 14.4512 134.521 14.2715V15.6543C134.209 15.8105 133.875 15.9258 133.52 16C133.164 16.0781 132.73 16.1172 132.219 16.1172ZM140 9.32617C140.242 9.32617 140.443 9.34375 140.604 9.37891L140.469 11.0547C140.324 11.0156 140.148 10.9961 139.941 10.9961C139.371 10.9961 138.926 11.1426 138.605 11.4355C138.289 11.7285 138.131 12.1387 138.131 12.666V16H136.344V9.44922H137.697L137.961 10.5508H138.049C138.252 10.1836 138.525 9.88867 138.869 9.66602C139.217 9.43945 139.594 9.32617 140 9.32617ZM141.541 15.1621C141.541 14.834 141.629 14.5859 141.805 14.418C141.98 14.25 142.236 14.166 142.572 14.166C142.896 14.166 143.146 14.252 143.322 14.4238C143.502 14.5957 143.592 14.8418 143.592 15.1621C143.592 15.4707 143.502 15.7148 143.322 15.8945C143.143 16.0703 142.893 16.1582 142.572 16.1582C142.244 16.1582 141.99 16.0723 141.811 15.9004C141.631 15.7246 141.541 15.4785 141.541 15.1621ZM147.875 16.1172C145.836 16.1172 144.816 14.998 144.816 12.7598C144.816 11.6465 145.094 10.7969 145.648 10.2109C146.203 9.62109 146.998 9.32617 148.033 9.32617C148.791 9.32617 149.471 9.47461 150.072 9.77148L149.545 11.1543C149.264 11.041 149.002 10.9492 148.76 10.8789C148.518 10.8047 148.275 10.7676 148.033 10.7676C147.104 10.7676 146.639 11.4277 146.639 12.748C146.639 14.0293 147.104 14.6699 148.033 14.6699C148.377 14.6699 148.695 14.625 148.988 14.5352C149.281 14.4414 149.574 14.2969 149.867 14.1016V15.6309C149.578 15.8145 149.285 15.9414 148.988 16.0117C148.695 16.082 148.324 16.1172 147.875 16.1172ZM152.814 12.7129C152.814 13.3613 152.92 13.8516 153.131 14.1836C153.346 14.5156 153.693 14.6816 154.174 14.6816C154.65 14.6816 154.992 14.5176 155.199 14.1895C155.41 13.8574 155.516 13.3652 155.516 12.7129C155.516 12.0645 155.41 11.5781 155.199 11.2539C154.988 10.9297 154.643 10.7676 154.162 10.7676C153.686 10.7676 153.342 10.9297 153.131 11.2539C152.92 11.5742 152.814 12.0605 152.814 12.7129ZM157.344 12.7129C157.344 13.7793 157.062 14.6133 156.5 15.2148C155.938 15.8164 155.154 16.1172 154.15 16.1172C153.521 16.1172 152.967 15.9805 152.486 15.707C152.006 15.4297 151.637 15.0332 151.379 14.5176C151.121 14.002 150.992 13.4004 150.992 12.7129C150.992 11.6426 151.271 10.8105 151.83 10.2168C152.389 9.62305 153.174 9.32617 154.186 9.32617C154.814 9.32617 155.369 9.46289 155.85 9.73633C156.33 10.0098 156.699 10.4023 156.957 10.9141C157.215 11.4258 157.344 12.0254 157.344 12.7129ZM164.686 16H162.898V12.1738C162.898 11.7012 162.818 11.3477 162.658 11.1133C162.502 10.875 162.254 10.7559 161.914 10.7559C161.457 10.7559 161.125 10.9238 160.918 11.2598C160.711 11.5957 160.607 12.1484 160.607 12.918V16H158.82V9.44922H160.186L160.426 10.2871H160.525C160.701 9.98633 160.955 9.75195 161.287 9.58398C161.619 9.41211 162 9.32617 162.43 9.32617C163.41 9.32617 164.074 9.64648 164.422 10.2871H164.58C164.756 9.98242 165.014 9.74609 165.354 9.57812C165.697 9.41016 166.084 9.32617 166.514 9.32617C167.256 9.32617 167.816 9.51758 168.195 9.90039C168.578 10.2793 168.77 10.8887 168.77 11.7285V16H166.977V12.1738C166.977 11.7012 166.896 11.3477 166.736 11.1133C166.58 10.875 166.332 10.7559 165.992 10.7559C165.555 10.7559 165.227 10.9121 165.008 11.2246C164.793 11.5371 164.686 12.0332 164.686 12.7129V16Z" fill="#333" fill-opacity=".5"/></g><defs><clipPath id="clip0"><path fill="#fff" transform="translate(-502 -5961)" d="M0 0H1440V6677H0z"/></clipPath></defs></svg>