<svg width="28" height="30" viewBox="0 0 28 30" fill="none" xmlns="http://www.w3.org/2000/svg"><g clip-path="url(#clip0)"><path transform="translate(-70 -5958)" fill="#fff" d="M0 0H1440V6677H0z"/><path d="M14.7031 20.4766C14.2292 19.7839 13.6185 18.9089 12.8711 17.8516C11.9596 16.5391 11.3581 15.6549 11.0664 15.1992C10.6471 14.543 10.3646 13.9961 10.2188 13.5586C10.0729 13.1029 10 12.5833 10 12C10 11.0521 10.237 10.1771 10.7109 9.375C11.1849 8.57292 11.8229 7.9349 12.625 7.46094C13.4271 6.98698 14.3021 6.75 15.25 6.75C16.1979 6.75 17.0729 6.98698 17.875 7.46094C18.6771 7.9349 19.3151 8.57292 19.7891 9.375C20.263 10.1771 20.5 11.0521 20.5 12C20.5 12.5833 20.4271 13.1029 20.2812 13.5586C20.1354 13.9961 19.8529 14.543 19.4336 15.1992C19.1419 15.6549 18.5404 16.5391 17.6289 17.8516L15.7969 20.4766C15.6693 20.6589 15.487 20.75 15.25 20.75C15.013 20.75 14.8307 20.6589 14.7031 20.4766ZM15.25 14.1875C15.8516 14.1875 16.362 13.9779 16.7812 13.5586C17.2188 13.1211 17.4375 12.6016 17.4375 12C17.4375 11.3984 17.2188 10.888 16.7812 10.4688C16.362 10.0312 15.8516 9.8125 15.25 9.8125C14.6484 9.8125 14.1289 10.0312 13.6914 10.4688C13.2721 10.888 13.0625 11.3984 13.0625 12C13.0625 12.6016 13.2721 13.1211 13.6914 13.5586C14.1289 13.9779 14.6484 14.1875 15.25 14.1875ZM221.867 7.43359L219.023 6.77734C218.878 6.74089 218.732 6.75911 218.586 6.83203C218.44 6.90495 218.34 7.00521 218.285 7.13281L216.973 10.1953C216.918 10.3411 216.909 10.487 216.945 10.6328C216.982 10.7604 217.055 10.8698 217.164 10.9609L218.805 12.3281C218.312 13.3854 217.647 14.3333 216.809 15.1719C215.988 16.0104 215.04 16.6758 213.965 17.168L212.625 15.5273C212.534 15.3997 212.415 15.3268 212.27 15.3086C212.124 15.2721 211.987 15.2812 211.859 15.3359L208.797 16.6484C208.651 16.7031 208.542 16.8034 208.469 16.9492C208.396 17.0951 208.378 17.2409 208.414 17.3867L209.07 20.2305C209.089 20.3945 209.161 20.5221 209.289 20.6133C209.417 20.7044 209.553 20.75 209.699 20.75C211.996 20.75 214.129 20.1758 216.098 19.0273C218.012 17.8971 219.534 16.375 220.664 14.4609C221.812 12.4922 222.387 10.3594 222.387 8.0625C222.387 7.91667 222.341 7.77995 222.25 7.65234C222.159 7.52474 222.031 7.45182 221.867 7.43359ZM449.242 11.9727C449.297 11.918 449.352 11.9089 449.406 11.9453C449.479 11.9818 449.516 12.0365 449.516 12.1094V17.6875C449.516 18.0521 449.388 18.362 449.133 18.6172C448.878 18.8724 448.568 19 448.203 19H436.828C436.464 19 436.154 18.8724 435.898 18.6172C435.643 18.362 435.516 18.0521 435.516 17.6875V12.1094C435.516 12.0365 435.543 11.9909 435.598 11.9727C435.671 11.9362 435.734 11.9362 435.789 11.9727C436.391 12.4284 437.794 13.4583 440 15.0625L440.273 15.3086C440.711 15.6367 441.057 15.8737 441.312 16.0195C441.75 16.2565 442.151 16.375 442.516 16.375C442.88 16.375 443.281 16.2474 443.719 15.9922C443.992 15.8464 444.339 15.6094 444.758 15.2812L445.031 15.0625C447.182 13.513 448.586 12.4831 449.242 11.9727ZM442.516 15.5C442.753 15.5 443.044 15.3906 443.391 15.1719C443.591 15.0625 443.874 14.862 444.238 14.5703L444.512 14.3789C446.809 12.7201 448.349 11.5807 449.133 10.9609L449.27 10.8516C449.434 10.724 449.516 10.5508 449.516 10.332V9.8125C449.516 9.44792 449.388 9.13802 449.133 8.88281C448.878 8.6276 448.568 8.5 448.203 8.5H436.828C436.464 8.5 436.154 8.6276 435.898 8.88281C435.643 9.13802 435.516 9.44792 435.516 9.8125V10.332C435.516 10.5508 435.598 10.724 435.762 10.8516L435.953 10.9883C436.755 11.6081 438.277 12.7383 440.52 14.3789L440.793 14.5703C441.158 14.862 441.44 15.0625 441.641 15.1719C441.987 15.3906 442.279 15.5 442.516 15.5Z" fill="#E8C300"/><path d="M33.4492 13.5273C34.2773 13.5273 34.9355 13.7598 35.4238 14.2246C35.916 14.6895 36.1621 15.3262 36.1621 16.1348C36.1621 17.0918 35.8672 17.8281 35.2773 18.3438C34.6875 18.8594 33.8438 19.1172 32.7461 19.1172C31.793 19.1172 31.0234 18.9629 30.4375 18.6543V17.0898C30.7461 17.2539 31.1055 17.3887 31.5156 17.4941C31.9258 17.5957 32.3145 17.6465 32.6816 17.6465C33.7871 17.6465 34.3398 17.1934 34.3398 16.2871C34.3398 15.4238 33.7676 14.9922 32.623 14.9922C32.416 14.9922 32.1875 15.0137 31.9375 15.0566C31.6875 15.0957 31.4844 15.1387 31.3281 15.1855L30.6074 14.7988L30.9297 10.4336H35.5762V11.9688H32.5176L32.3594 13.6504L32.5645 13.6094C32.8027 13.5547 33.0977 13.5273 33.4492 13.5273ZM40.4043 17.6934C40.7168 17.6934 41.0918 17.625 41.5293 17.4883V18.8184C41.084 19.0176 40.5371 19.1172 39.8887 19.1172C39.1738 19.1172 38.6523 18.9375 38.3242 18.5781C38 18.2148 37.8379 17.6719 37.8379 16.9492V13.791H36.9824V13.0352L37.9668 12.4375L38.4824 11.0547H39.625V12.4492H41.459V13.791H39.625V16.9492C39.625 17.2031 39.6953 17.3906 39.8359 17.5117C39.9805 17.6328 40.1699 17.6934 40.4043 17.6934ZM48.9062 19H47.1191V15.1738C47.1191 14.2285 46.7676 13.7559 46.0645 13.7559C45.5645 13.7559 45.2031 13.9258 44.9805 14.2656C44.7578 14.6055 44.6465 15.1562 44.6465 15.918V19H42.8594V9.88281H44.6465V11.7402C44.6465 11.8848 44.6328 12.2246 44.6055 12.7598L44.5645 13.2871H44.6582C45.0566 12.6465 45.6895 12.3262 46.5566 12.3262C47.3262 12.3262 47.9102 12.5332 48.3086 12.9473C48.707 13.3613 48.9062 13.9551 48.9062 14.7285V19ZM54.0039 19V10.4336H55.8203V17.5H59.2949V19H54.0039ZM62.0723 15.7129C62.0723 16.3613 62.1777 16.8516 62.3887 17.1836C62.6035 17.5156 62.9512 17.6816 63.4316 17.6816C63.9082 17.6816 64.25 17.5176 64.457 17.1895C64.668 16.8574 64.7734 16.3652 64.7734 15.7129C64.7734 15.0645 64.668 14.5781 64.457 14.2539C64.2461 13.9297 63.9004 13.7676 63.4199 13.7676C62.9434 13.7676 62.5996 13.9297 62.3887 14.2539C62.1777 14.5742 62.0723 15.0605 62.0723 15.7129ZM66.6016 15.7129C66.6016 16.7793 66.3203 17.6133 65.7578 18.2148C65.1953 18.8164 64.4121 19.1172 63.4082 19.1172C62.7793 19.1172 62.2246 18.9805 61.7441 18.707C61.2637 18.4297 60.8945 18.0332 60.6367 17.5176C60.3789 17.002 60.25 16.4004 60.25 15.7129C60.25 14.6426 60.5293 13.8105 61.0879 13.2168C61.6465 12.623 62.4316 12.3262 63.4434 12.3262C64.0723 12.3262 64.627 12.4629 65.1074 12.7363C65.5879 13.0098 65.957 13.4023 66.2148 13.9141C66.4727 14.4258 66.6016 15.0254 66.6016 15.7129ZM74.125 19H72.3379V15.1738C72.3379 14.7012 72.2539 14.3477 72.0859 14.1133C71.918 13.875 71.6504 13.7559 71.2832 13.7559C70.7832 13.7559 70.4219 13.9238 70.1992 14.2598C69.9766 14.5918 69.8652 15.1445 69.8652 15.918V19H68.0781V12.4492H69.4434L69.6836 13.2871H69.7832C69.9824 12.9707 70.2559 12.7324 70.6035 12.5723C70.9551 12.4082 71.3535 12.3262 71.7988 12.3262C72.5605 12.3262 73.1387 12.5332 73.5332 12.9473C73.9277 13.3574 74.125 13.9512 74.125 14.7285V19ZM78.0391 19.1172C77.2695 19.1172 76.6641 18.8184 76.2227 18.2207C75.7852 17.623 75.5664 16.7949 75.5664 15.7363C75.5664 14.6621 75.7891 13.8262 76.2344 13.2285C76.6836 12.627 77.3008 12.3262 78.0859 12.3262C78.9102 12.3262 79.5391 12.6465 79.9727 13.2871H80.0312C79.9414 12.7988 79.8965 12.3633 79.8965 11.9805V9.88281H81.6895V19H80.3184L79.9727 18.1504H79.8965C79.4902 18.7949 78.8711 19.1172 78.0391 19.1172ZM78.666 17.6934C79.123 17.6934 79.457 17.5605 79.668 17.2949C79.8828 17.0293 80 16.5781 80.0195 15.9414V15.748C80.0195 15.0449 79.9102 14.541 79.6914 14.2363C79.4766 13.9316 79.125 13.7793 78.6367 13.7793C78.2383 13.7793 77.9277 13.9492 77.7051 14.2891C77.4863 14.625 77.377 15.1152 77.377 15.7598C77.377 16.4043 77.4883 16.8887 77.7109 17.2129C77.9336 17.5332 78.252 17.6934 78.666 17.6934ZM84.9824 15.7129C84.9824 16.3613 85.0879 16.8516 85.2988 17.1836C85.5137 17.5156 85.8613 17.6816 86.3418 17.6816C86.8184 17.6816 87.1602 17.5176 87.3672 17.1895C87.5781 16.8574 87.6836 16.3652 87.6836 15.7129C87.6836 15.0645 87.5781 14.5781 87.3672 14.2539C87.1562 13.9297 86.8105 13.7676 86.3301 13.7676C85.8535 13.7676 85.5098 13.9297 85.2988 14.2539C85.0879 14.5742 84.9824 15.0605 84.9824 15.7129ZM89.5117 15.7129C89.5117 16.7793 89.2305 17.6133 88.668 18.2148C88.1055 18.8164 87.3223 19.1172 86.3184 19.1172C85.6895 19.1172 85.1348 18.9805 84.6543 18.707C84.1738 18.4297 83.8047 18.0332 83.5469 17.5176C83.2891 17.002 83.1602 16.4004 83.1602 15.7129C83.1602 14.6426 83.4395 13.8105 83.998 13.2168C84.5566 12.623 85.3418 12.3262 86.3535 12.3262C86.9824 12.3262 87.5371 12.4629 88.0176 12.7363C88.498 13.0098 88.8672 13.4023 89.125 13.9141C89.3828 14.4258 89.5117 15.0254 89.5117 15.7129ZM97.0352 19H95.248V15.1738C95.248 14.7012 95.1641 14.3477 94.9961 14.1133C94.8281 13.875 94.5605 13.7559 94.1934 13.7559C93.6934 13.7559 93.332 13.9238 93.1094 14.2598C92.8867 14.5918 92.7754 15.1445 92.7754 15.918V19H90.9883V12.4492H92.3535L92.5938 13.2871H92.6934C92.8926 12.9707 93.166 12.7324 93.5137 12.5723C93.8652 12.4082 94.2637 12.3262 94.709 12.3262C95.4707 12.3262 96.0488 12.5332 96.4434 12.9473C96.8379 13.3574 97.0352 13.9512 97.0352 14.7285V19ZM102.133 10.4336H104.799C106.014 10.4336 106.895 10.6074 107.441 10.9551C107.992 11.2988 108.268 11.8477 108.268 12.6016C108.268 13.1133 108.146 13.5332 107.904 13.8613C107.666 14.1895 107.348 14.3867 106.949 14.4531V14.5117C107.492 14.6328 107.883 14.8594 108.121 15.1914C108.363 15.5234 108.484 15.9648 108.484 16.5156C108.484 17.2969 108.201 17.9062 107.635 18.3438C107.072 18.7812 106.307 19 105.338 19H102.133V10.4336ZM103.949 13.8262H105.004C105.496 13.8262 105.852 13.75 106.07 13.5977C106.293 13.4453 106.404 13.1934 106.404 12.8418C106.404 12.5137 106.283 12.2793 106.041 12.1387C105.803 11.9941 105.424 11.9219 104.904 11.9219H103.949V13.8262ZM103.949 15.2676V17.5H105.133C105.633 17.5 106.002 17.4043 106.24 17.2129C106.479 17.0215 106.598 16.7285 106.598 16.334C106.598 15.623 106.09 15.2676 105.074 15.2676H103.949ZM111.479 15.7129C111.479 16.3613 111.584 16.8516 111.795 17.1836C112.01 17.5156 112.357 17.6816 112.838 17.6816C113.314 17.6816 113.656 17.5176 113.863 17.1895C114.074 16.8574 114.18 16.3652 114.18 15.7129C114.18 15.0645 114.074 14.5781 113.863 14.2539C113.652 13.9297 113.307 13.7676 112.826 13.7676C112.35 13.7676 112.006 13.9297 111.795 14.2539C111.584 14.5742 111.479 15.0605 111.479 15.7129ZM116.008 15.7129C116.008 16.7793 115.727 17.6133 115.164 18.2148C114.602 18.8164 113.818 19.1172 112.814 19.1172C112.186 19.1172 111.631 18.9805 111.15 18.707C110.67 18.4297 110.301 18.0332 110.043 17.5176C109.785 17.002 109.656 16.4004 109.656 15.7129C109.656 14.6426 109.936 13.8105 110.494 13.2168C111.053 12.623 111.838 12.3262 112.85 12.3262C113.479 12.3262 114.033 12.4629 114.514 12.7363C114.994 13.0098 115.363 13.4023 115.621 13.9141C115.879 14.4258 116.008 15.0254 116.008 15.7129ZM122.125 19L121.885 18.1621H121.791C121.6 18.4668 121.328 18.7031 120.977 18.8711C120.625 19.0352 120.225 19.1172 119.775 19.1172C119.006 19.1172 118.426 18.9121 118.035 18.502C117.645 18.0879 117.449 17.4941 117.449 16.7207V12.4492H119.236V16.2754C119.236 16.748 119.32 17.1035 119.488 17.3418C119.656 17.5762 119.924 17.6934 120.291 17.6934C120.791 17.6934 121.152 17.5273 121.375 17.1953C121.598 16.8594 121.709 16.3047 121.709 15.5312V12.4492H123.496V19H122.125ZM127.158 19H125.371V9.88281H127.158V19ZM131.752 13.5977C131.373 13.5977 131.076 13.7188 130.861 13.9609C130.646 14.1992 130.523 14.5391 130.492 14.9805H133C132.992 14.5391 132.877 14.1992 132.654 13.9609C132.432 13.7188 132.131 13.5977 131.752 13.5977ZM132.004 19.1172C130.949 19.1172 130.125 18.8262 129.531 18.2441C128.938 17.6621 128.641 16.8379 128.641 15.7715C128.641 14.6738 128.914 13.8262 129.461 13.2285C130.012 12.627 130.771 12.3262 131.74 12.3262C132.666 12.3262 133.387 12.5898 133.902 13.1172C134.418 13.6445 134.676 14.373 134.676 15.3027V16.1699H130.451C130.471 16.6777 130.621 17.0742 130.902 17.3594C131.184 17.6445 131.578 17.7871 132.086 17.7871C132.48 17.7871 132.854 17.7461 133.205 17.6641C133.557 17.582 133.924 17.4512 134.307 17.2715V18.6543C133.994 18.8105 133.66 18.9258 133.305 19C132.949 19.0781 132.516 19.1172 132.004 19.1172ZM137.688 19L135.191 12.4492H137.061L138.326 16.1816C138.467 16.6543 138.555 17.1016 138.59 17.5234H138.625C138.645 17.1484 138.732 16.7012 138.889 16.1816L140.148 12.4492H142.018L139.521 19H137.688ZM147.121 19L146.775 18.1094H146.729C146.428 18.4883 146.117 18.752 145.797 18.9004C145.48 19.0449 145.066 19.1172 144.555 19.1172C143.926 19.1172 143.43 18.9375 143.066 18.5781C142.707 18.2188 142.527 17.707 142.527 17.043C142.527 16.3477 142.77 15.8359 143.254 15.5078C143.742 15.1758 144.477 14.9922 145.457 14.957L146.594 14.9219V14.6348C146.594 13.9707 146.254 13.6387 145.574 13.6387C145.051 13.6387 144.436 13.7969 143.729 14.1133L143.137 12.9062C143.891 12.5117 144.727 12.3145 145.645 12.3145C146.523 12.3145 147.197 12.5059 147.666 12.8887C148.135 13.2715 148.369 13.8535 148.369 14.6348V19H147.121ZM146.594 15.9648L145.902 15.9883C145.383 16.0039 144.996 16.0977 144.742 16.2695C144.488 16.4414 144.361 16.7031 144.361 17.0547C144.361 17.5586 144.65 17.8105 145.229 17.8105C145.643 17.8105 145.973 17.6914 146.219 17.4531C146.469 17.2148 146.594 16.8984 146.594 16.5039V15.9648ZM153.871 12.3262C154.113 12.3262 154.314 12.3438 154.475 12.3789L154.34 14.0547C154.195 14.0156 154.02 13.9961 153.812 13.9961C153.242 13.9961 152.797 14.1426 152.477 14.4355C152.16 14.7285 152.002 15.1387 152.002 15.666V19H150.215V12.4492H151.568L151.832 13.5508H151.92C152.123 13.1836 152.396 12.8887 152.74 12.666C153.088 12.4395 153.465 12.3262 153.871 12.3262ZM157.738 19.1172C156.969 19.1172 156.363 18.8184 155.922 18.2207C155.484 17.623 155.266 16.7949 155.266 15.7363C155.266 14.6621 155.488 13.8262 155.934 13.2285C156.383 12.627 157 12.3262 157.785 12.3262C158.609 12.3262 159.238 12.6465 159.672 13.2871H159.73C159.641 12.7988 159.596 12.3633 159.596 11.9805V9.88281H161.389V19H160.018L159.672 18.1504H159.596C159.189 18.7949 158.57 19.1172 157.738 19.1172ZM158.365 17.6934C158.822 17.6934 159.156 17.5605 159.367 17.2949C159.582 17.0293 159.699 16.5781 159.719 15.9414V15.748C159.719 15.0449 159.609 14.541 159.391 14.2363C159.176 13.9316 158.824 13.7793 158.336 13.7793C157.938 13.7793 157.627 13.9492 157.404 14.2891C157.186 14.625 157.076 15.1152 157.076 15.7598C157.076 16.4043 157.188 16.8887 157.41 17.2129C157.633 17.5332 157.951 17.6934 158.365 17.6934ZM165.01 17.7402C164.807 18.5293 164.463 19.4648 163.979 20.5469H162.689C162.943 19.5078 163.141 18.5273 163.281 17.6055H164.922L165.01 17.7402ZM176.969 10.4336V15.9766C176.969 16.6094 176.826 17.1641 176.541 17.6406C176.26 18.1172 175.852 18.4824 175.316 18.7363C174.781 18.9902 174.148 19.1172 173.418 19.1172C172.316 19.1172 171.461 18.8359 170.852 18.2734C170.242 17.707 169.938 16.9336 169.938 15.9531V10.4336H171.748V15.6777C171.748 16.3379 171.881 16.8223 172.146 17.1309C172.412 17.4395 172.852 17.5938 173.465 17.5938C174.059 17.5938 174.488 17.4395 174.754 17.1309C175.023 16.8184 175.158 16.3301 175.158 15.666V10.4336H176.969ZM178.674 18.1621C178.674 17.834 178.762 17.5859 178.938 17.418C179.113 17.25 179.369 17.166 179.705 17.166C180.029 17.166 180.279 17.252 180.455 17.4238C180.635 17.5957 180.725 17.8418 180.725 18.1621C180.725 18.4707 180.635 18.7148 180.455 18.8945C180.275 19.0703 180.025 19.1582 179.705 19.1582C179.377 19.1582 179.123 19.0723 178.943 18.9004C178.764 18.7246 178.674 18.4785 178.674 18.1621ZM189.379 19H187.316L185.072 15.3906L184.305 15.9414V19H182.488V10.4336H184.305V14.3535L185.02 13.3457L187.34 10.4336H189.355L186.367 14.2246L189.379 19ZM190.064 18.1621C190.064 17.834 190.152 17.5859 190.328 17.418C190.504 17.25 190.76 17.166 191.096 17.166C191.42 17.166 191.67 17.252 191.846 17.4238C192.025 17.5957 192.115 17.8418 192.115 18.1621C192.115 18.4707 192.025 18.7148 191.846 18.8945C191.666 19.0703 191.416 19.1582 191.096 19.1582C190.768 19.1582 190.514 19.0723 190.334 18.9004C190.154 18.7246 190.064 18.4785 190.064 18.1621ZM234.521 15.4141H232.254V14.1309H234.521V11.8457H235.805V14.1309H238.072V15.4141H235.805V17.6699H234.521V15.4141ZM245.256 17.2246H244.225V19H242.455V17.2246H238.799V15.9648L242.555 10.4336H244.225V15.8184H245.256V17.2246ZM242.455 15.8184V14.3652C242.455 14.123 242.465 13.7715 242.484 13.3105C242.504 12.8496 242.52 12.582 242.531 12.5078H242.484C242.34 12.8281 242.166 13.1406 241.963 13.4453L240.393 15.8184H242.455ZM251.871 14.7168C251.871 16.2129 251.625 17.3203 251.133 18.0391C250.645 18.7578 249.891 19.1172 248.871 19.1172C247.883 19.1172 247.137 18.7461 246.633 18.0039C246.133 17.2617 245.883 16.166 245.883 14.7168C245.883 13.2051 246.127 12.0918 246.615 11.377C247.104 10.6582 247.855 10.2988 248.871 10.2988C249.859 10.2988 250.605 10.6738 251.109 11.4238C251.617 12.1738 251.871 13.2715 251.871 14.7168ZM247.682 14.7168C247.682 15.7676 247.771 16.5215 247.951 16.9785C248.135 17.4316 248.441 17.6582 248.871 17.6582C249.293 17.6582 249.598 17.4277 249.785 16.9668C249.973 16.5059 250.066 15.7559 250.066 14.7168C250.066 13.666 249.971 12.9121 249.779 12.4551C249.592 11.9941 249.289 11.7637 248.871 11.7637C248.445 11.7637 248.141 11.9941 247.957 12.4551C247.773 12.9121 247.682 13.666 247.682 14.7168ZM256.752 19L259.969 11.9688H255.744V10.4453H261.891V11.582L258.65 19H256.752ZM268.746 19H262.758V17.7402L264.908 15.5664C265.545 14.9141 265.961 14.4629 266.156 14.2129C266.352 13.959 266.492 13.7246 266.578 13.5098C266.664 13.2949 266.707 13.0723 266.707 12.8418C266.707 12.498 266.611 12.2422 266.42 12.0742C266.232 11.9062 265.98 11.8223 265.664 11.8223C265.332 11.8223 265.01 11.8984 264.697 12.0508C264.385 12.2031 264.059 12.4199 263.719 12.7012L262.734 11.5352C263.156 11.1758 263.506 10.9219 263.783 10.7734C264.061 10.625 264.363 10.5117 264.691 10.4336C265.02 10.3516 265.387 10.3105 265.793 10.3105C266.328 10.3105 266.801 10.4082 267.211 10.6035C267.621 10.7988 267.939 11.0723 268.166 11.4238C268.393 11.7754 268.506 12.1777 268.506 12.6309C268.506 13.0254 268.436 13.3965 268.295 13.7441C268.158 14.0879 267.943 14.4414 267.65 14.8047C267.361 15.168 266.85 15.6855 266.115 16.3574L265.014 17.3945V17.4766H268.746V19ZM275.566 14.0898C275.566 15.7773 275.211 17.0371 274.5 17.8691C273.789 18.7012 272.713 19.1172 271.271 19.1172C270.764 19.1172 270.379 19.0898 270.117 19.0352V17.582C270.445 17.6641 270.789 17.7051 271.148 17.7051C271.754 17.7051 272.252 17.6172 272.643 17.4414C273.033 17.2617 273.332 16.9824 273.539 16.6035C273.746 16.2207 273.865 15.6953 273.896 15.0273H273.826C273.6 15.3945 273.338 15.6523 273.041 15.8008C272.744 15.9492 272.373 16.0234 271.928 16.0234C271.182 16.0234 270.594 15.7852 270.164 15.3086C269.734 14.8281 269.52 14.1621 269.52 13.3105C269.52 12.3926 269.779 11.668 270.299 11.1367C270.822 10.6016 271.533 10.334 272.432 10.334C273.064 10.334 273.617 10.4824 274.09 10.7793C274.566 11.0762 274.932 11.5078 275.186 12.0742C275.439 12.6367 275.566 13.3086 275.566 14.0898ZM272.467 11.7871C272.092 11.7871 271.799 11.916 271.588 12.1738C271.377 12.4316 271.271 12.8027 271.271 13.2871C271.271 13.7012 271.367 14.0293 271.559 14.2715C271.75 14.5137 272.041 14.6348 272.432 14.6348C272.799 14.6348 273.113 14.5156 273.375 14.2773C273.637 14.0352 273.768 13.7578 273.768 13.4453C273.768 12.9805 273.645 12.5879 273.398 12.2676C273.156 11.9473 272.846 11.7871 272.467 11.7871ZM284.062 19H282.252V14.043L282.27 13.2285L282.299 12.3379C281.998 12.6387 281.789 12.8359 281.672 12.9297L280.688 13.7207L279.814 12.6309L282.574 10.4336H284.062V19ZM292.096 12.3496C292.096 12.8848 291.934 13.3398 291.609 13.7148C291.285 14.0898 290.83 14.3477 290.244 14.4883V14.5234C290.936 14.6094 291.459 14.8203 291.814 15.1562C292.17 15.4883 292.348 15.9375 292.348 16.5039C292.348 17.3281 292.049 17.9707 291.451 18.4316C290.854 18.8887 290 19.1172 288.891 19.1172C287.961 19.1172 287.137 18.9629 286.418 18.6543V17.1133C286.75 17.2812 287.115 17.418 287.514 17.5234C287.912 17.6289 288.307 17.6816 288.697 17.6816C289.295 17.6816 289.736 17.5801 290.021 17.377C290.307 17.1738 290.449 16.8477 290.449 16.3984C290.449 15.9961 290.285 15.7109 289.957 15.543C289.629 15.375 289.105 15.291 288.387 15.291H287.736V13.9023H288.398C289.062 13.9023 289.547 13.8164 289.852 13.6445C290.16 13.4688 290.314 13.1699 290.314 12.748C290.314 12.0996 289.908 11.7754 289.096 11.7754C288.814 11.7754 288.527 11.8223 288.234 11.916C287.945 12.0098 287.623 12.1719 287.268 12.4023L286.43 11.1543C287.211 10.5918 288.143 10.3105 289.225 10.3105C290.111 10.3105 290.811 10.4902 291.322 10.8496C291.838 11.209 292.096 11.709 292.096 12.3496ZM297.773 19H295.963V14.043L295.98 13.2285L296.01 12.3379C295.709 12.6387 295.5 12.8359 295.383 12.9297L294.398 13.7207L293.525 12.6309L296.285 10.4336H297.773V19ZM303.211 15.3613C303.211 13.666 303.568 12.4043 304.283 11.5762C305.002 10.748 306.076 10.334 307.506 10.334C307.994 10.334 308.377 10.3633 308.654 10.4219V11.8691C308.307 11.791 307.963 11.752 307.623 11.752C307.002 11.752 306.494 11.8457 306.1 12.0332C305.709 12.2207 305.416 12.498 305.221 12.8652C305.025 13.2324 304.91 13.7539 304.875 14.4297H304.951C305.338 13.7656 305.957 13.4336 306.809 13.4336C307.574 13.4336 308.174 13.6738 308.607 14.1543C309.041 14.6348 309.258 15.2988 309.258 16.1465C309.258 17.0605 309 17.7852 308.484 18.3203C307.969 18.8516 307.254 19.1172 306.34 19.1172C305.707 19.1172 305.154 18.9707 304.682 18.6777C304.213 18.3848 303.85 17.957 303.592 17.3945C303.338 16.832 303.211 16.1543 303.211 15.3613ZM306.305 17.6699C306.691 17.6699 306.988 17.541 307.195 17.2832C307.402 17.0215 307.506 16.6504 307.506 16.1699C307.506 15.752 307.408 15.4238 307.213 15.1855C307.021 14.9434 306.73 14.8223 306.34 14.8223C305.973 14.8223 305.658 14.9414 305.396 15.1797C305.139 15.418 305.01 15.6953 305.01 16.0117C305.01 16.4766 305.131 16.8691 305.373 17.1895C305.619 17.5098 305.93 17.6699 306.305 17.6699ZM315.779 12.3496C315.779 12.8848 315.617 13.3398 315.293 13.7148C314.969 14.0898 314.514 14.3477 313.928 14.4883V14.5234C314.619 14.6094 315.143 14.8203 315.498 15.1562C315.854 15.4883 316.031 15.9375 316.031 16.5039C316.031 17.3281 315.732 17.9707 315.135 18.4316C314.537 18.8887 313.684 19.1172 312.574 19.1172C311.645 19.1172 310.82 18.9629 310.102 18.6543V17.1133C310.434 17.2812 310.799 17.418 311.197 17.5234C311.596 17.6289 311.99 17.6816 312.381 17.6816C312.979 17.6816 313.42 17.5801 313.705 17.377C313.99 17.1738 314.133 16.8477 314.133 16.3984C314.133 15.9961 313.969 15.7109 313.641 15.543C313.312 15.375 312.789 15.291 312.07 15.291H311.42V13.9023H312.082C312.746 13.9023 313.23 13.8164 313.535 13.6445C313.844 13.4688 313.998 13.1699 313.998 12.748C313.998 12.0996 313.592 11.7754 312.779 11.7754C312.498 11.7754 312.211 11.8223 311.918 11.916C311.629 12.0098 311.307 12.1719 310.951 12.4023L310.113 11.1543C310.895 10.5918 311.826 10.3105 312.908 10.3105C313.795 10.3105 314.494 10.4902 315.006 10.8496C315.521 11.209 315.779 11.709 315.779 12.3496ZM317.83 19L321.047 11.9688H316.822V10.4453H322.969V11.582L319.729 19H317.83ZM328.254 10.4336L325.061 19H323.438L326.631 10.4336H328.254ZM331.096 15.4141H328.828V14.1309H331.096V11.8457H332.379V14.1309H334.646V15.4141H332.379V17.6699H331.096V15.4141ZM341.83 17.2246H340.799V19H339.029V17.2246H335.373V15.9648L339.129 10.4336H340.799V15.8184H341.83V17.2246ZM339.029 15.8184V14.3652C339.029 14.123 339.039 13.7715 339.059 13.3105C339.078 12.8496 339.094 12.582 339.105 12.5078H339.059C338.914 12.8281 338.74 13.1406 338.537 13.4453L336.967 15.8184H339.029ZM348.445 14.7168C348.445 16.2129 348.199 17.3203 347.707 18.0391C347.219 18.7578 346.465 19.1172 345.445 19.1172C344.457 19.1172 343.711 18.7461 343.207 18.0039C342.707 17.2617 342.457 16.166 342.457 14.7168C342.457 13.2051 342.701 12.0918 343.189 11.377C343.678 10.6582 344.43 10.2988 345.445 10.2988C346.434 10.2988 347.18 10.6738 347.684 11.4238C348.191 12.1738 348.445 13.2715 348.445 14.7168ZM344.256 14.7168C344.256 15.7676 344.346 16.5215 344.525 16.9785C344.709 17.4316 345.016 17.6582 345.445 17.6582C345.867 17.6582 346.172 17.4277 346.359 16.9668C346.547 16.5059 346.641 15.7559 346.641 14.7168C346.641 13.666 346.545 12.9121 346.354 12.4551C346.166 11.9941 345.863 11.7637 345.445 11.7637C345.02 11.7637 344.715 11.9941 344.531 12.4551C344.348 12.9121 344.256 13.666 344.256 14.7168ZM353.326 19L356.543 11.9688H352.318V10.4453H358.465V11.582L355.225 19H353.326ZM365.32 19H359.332V17.7402L361.482 15.5664C362.119 14.9141 362.535 14.4629 362.73 14.2129C362.926 13.959 363.066 13.7246 363.152 13.5098C363.238 13.2949 363.281 13.0723 363.281 12.8418C363.281 12.498 363.186 12.2422 362.994 12.0742C362.807 11.9062 362.555 11.8223 362.238 11.8223C361.906 11.8223 361.584 11.8984 361.271 12.0508C360.959 12.2031 360.633 12.4199 360.293 12.7012L359.309 11.5352C359.73 11.1758 360.08 10.9219 360.357 10.7734C360.635 10.625 360.938 10.5117 361.266 10.4336C361.594 10.3516 361.961 10.3105 362.367 10.3105C362.902 10.3105 363.375 10.4082 363.785 10.6035C364.195 10.7988 364.514 11.0723 364.74 11.4238C364.967 11.7754 365.08 12.1777 365.08 12.6309C365.08 13.0254 365.01 13.3965 364.869 13.7441C364.732 14.0879 364.518 14.4414 364.225 14.8047C363.936 15.168 363.424 15.6855 362.689 16.3574L361.588 17.3945V17.4766H365.32V19ZM366.129 15.3613C366.129 13.666 366.486 12.4043 367.201 11.5762C367.92 10.748 368.994 10.334 370.424 10.334C370.912 10.334 371.295 10.3633 371.572 10.4219V11.8691C371.225 11.791 370.881 11.752 370.541 11.752C369.92 11.752 369.412 11.8457 369.018 12.0332C368.627 12.2207 368.334 12.498 368.139 12.8652C367.943 13.2324 367.828 13.7539 367.793 14.4297H367.869C368.256 13.7656 368.875 13.4336 369.727 13.4336C370.492 13.4336 371.092 13.6738 371.525 14.1543C371.959 14.6348 372.176 15.2988 372.176 16.1465C372.176 17.0605 371.918 17.7852 371.402 18.3203C370.887 18.8516 370.172 19.1172 369.258 19.1172C368.625 19.1172 368.072 18.9707 367.6 18.6777C367.131 18.3848 366.768 17.957 366.51 17.3945C366.256 16.832 366.129 16.1543 366.129 15.3613ZM369.223 17.6699C369.609 17.6699 369.906 17.541 370.113 17.2832C370.32 17.0215 370.424 16.6504 370.424 16.1699C370.424 15.752 370.326 15.4238 370.131 15.1855C369.939 14.9434 369.648 14.8223 369.258 14.8223C368.891 14.8223 368.576 14.9414 368.314 15.1797C368.057 15.418 367.928 15.6953 367.928 16.0117C367.928 16.4766 368.049 16.8691 368.291 17.1895C368.537 17.5098 368.848 17.6699 369.223 17.6699ZM382.342 17.2246H381.311V19H379.541V17.2246H375.885V15.9648L379.641 10.4336H381.311V15.8184H382.342V17.2246ZM379.541 15.8184V14.3652C379.541 14.123 379.551 13.7715 379.57 13.3105C379.59 12.8496 379.605 12.582 379.617 12.5078H379.57C379.426 12.8281 379.252 13.1406 379.049 13.4453L377.479 15.8184H379.541ZM386.133 13.5273C386.961 13.5273 387.619 13.7598 388.107 14.2246C388.6 14.6895 388.846 15.3262 388.846 16.1348C388.846 17.0918 388.551 17.8281 387.961 18.3438C387.371 18.8594 386.527 19.1172 385.43 19.1172C384.477 19.1172 383.707 18.9629 383.121 18.6543V17.0898C383.43 17.2539 383.789 17.3887 384.199 17.4941C384.609 17.5957 384.998 17.6465 385.365 17.6465C386.471 17.6465 387.023 17.1934 387.023 16.2871C387.023 15.4238 386.451 14.9922 385.307 14.9922C385.1 14.9922 384.871 15.0137 384.621 15.0566C384.371 15.0957 384.168 15.1387 384.012 15.1855L383.291 14.7988L383.613 10.4336H388.26V11.9688H385.201L385.043 13.6504L385.248 13.6094C385.486 13.5547 385.781 13.5273 386.133 13.5273ZM392.824 10.3223C393.645 10.3223 394.305 10.5098 394.805 10.8848C395.309 11.2559 395.561 11.7578 395.561 12.3906C395.561 12.8281 395.439 13.2188 395.197 13.5625C394.955 13.9023 394.564 14.207 394.025 14.4766C394.666 14.8203 395.125 15.1797 395.402 15.5547C395.684 15.9258 395.824 16.334 395.824 16.7793C395.824 17.4824 395.549 18.0488 394.998 18.4785C394.447 18.9043 393.723 19.1172 392.824 19.1172C391.887 19.1172 391.15 18.918 390.615 18.5195C390.08 18.1211 389.812 17.5566 389.812 16.8262C389.812 16.3379 389.941 15.9043 390.199 15.5254C390.461 15.1465 390.879 14.8125 391.453 14.5234C390.965 14.2148 390.613 13.8848 390.398 13.5332C390.184 13.1816 390.076 12.7969 390.076 12.3789C390.076 11.7656 390.33 11.2695 390.838 10.8906C391.346 10.5117 392.008 10.3223 392.824 10.3223ZM391.488 16.7207C391.488 17.0566 391.605 17.3184 391.84 17.5059C392.074 17.6934 392.395 17.7871 392.801 17.7871C393.25 17.7871 393.586 17.6914 393.809 17.5C394.031 17.3047 394.143 17.0488 394.143 16.7324C394.143 16.4707 394.031 16.2266 393.809 16C393.59 15.7695 393.232 15.5254 392.736 15.2676C391.904 15.6504 391.488 16.1348 391.488 16.7207ZM392.812 11.6465C392.504 11.6465 392.254 11.7266 392.062 11.8867C391.875 12.043 391.781 12.2539 391.781 12.5195C391.781 12.7539 391.855 12.9648 392.004 13.1523C392.156 13.3359 392.43 13.5254 392.824 13.7207C393.207 13.541 393.475 13.3574 393.627 13.1699C393.779 12.9824 393.855 12.7656 393.855 12.5195C393.855 12.25 393.758 12.0371 393.562 11.8809C393.367 11.7246 393.117 11.6465 392.812 11.6465ZM400.693 19L403.91 11.9688H399.686V10.4453H405.832V11.582L402.592 19H400.693ZM409.652 10.3223C410.473 10.3223 411.133 10.5098 411.633 10.8848C412.137 11.2559 412.389 11.7578 412.389 12.3906C412.389 12.8281 412.268 13.2188 412.025 13.5625C411.783 13.9023 411.393 14.207 410.854 14.4766C411.494 14.8203 411.953 15.1797 412.23 15.5547C412.512 15.9258 412.652 16.334 412.652 16.7793C412.652 17.4824 412.377 18.0488 411.826 18.4785C411.275 18.9043 410.551 19.1172 409.652 19.1172C408.715 19.1172 407.979 18.918 407.443 18.5195C406.908 18.1211 406.641 17.5566 406.641 16.8262C406.641 16.3379 406.77 15.9043 407.027 15.5254C407.289 15.1465 407.707 14.8125 408.281 14.5234C407.793 14.2148 407.441 13.8848 407.227 13.5332C407.012 13.1816 406.904 12.7969 406.904 12.3789C406.904 11.7656 407.158 11.2695 407.666 10.8906C408.174 10.5117 408.836 10.3223 409.652 10.3223ZM408.316 16.7207C408.316 17.0566 408.434 17.3184 408.668 17.5059C408.902 17.6934 409.223 17.7871 409.629 17.7871C410.078 17.7871 410.414 17.6914 410.637 17.5C410.859 17.3047 410.971 17.0488 410.971 16.7324C410.971 16.4707 410.859 16.2266 410.637 16C410.418 15.7695 410.061 15.5254 409.564 15.2676C408.732 15.6504 408.316 16.1348 408.316 16.7207ZM409.641 11.6465C409.332 11.6465 409.082 11.7266 408.891 11.8867C408.703 12.043 408.609 12.2539 408.609 12.5195C408.609 12.7539 408.684 12.9648 408.832 13.1523C408.984 13.3359 409.258 13.5254 409.652 13.7207C410.035 13.541 410.303 13.3574 410.455 13.1699C410.607 12.9824 410.684 12.7656 410.684 12.5195C410.684 12.25 410.586 12.0371 410.391 11.8809C410.195 11.7246 409.945 11.6465 409.641 11.6465ZM419.543 19H413.555V17.7402L415.705 15.5664C416.342 14.9141 416.758 14.4629 416.953 14.2129C417.148 13.959 417.289 13.7246 417.375 13.5098C417.461 13.2949 417.504 13.0723 417.504 12.8418C417.504 12.498 417.408 12.2422 417.217 12.0742C417.029 11.9062 416.777 11.8223 416.461 11.8223C416.129 11.8223 415.807 11.8984 415.494 12.0508C415.182 12.2031 414.855 12.4199 414.516 12.7012L413.531 11.5352C413.953 11.1758 414.303 10.9219 414.58 10.7734C414.857 10.625 415.16 10.5117 415.488 10.4336C415.816 10.3516 416.184 10.3105 416.59 10.3105C417.125 10.3105 417.598 10.4082 418.008 10.6035C418.418 10.7988 418.736 11.0723 418.963 11.4238C419.189 11.7754 419.303 12.1777 419.303 12.6309C419.303 13.0254 419.232 13.3965 419.092 13.7441C418.955 14.0879 418.74 14.4414 418.447 14.8047C418.158 15.168 417.646 15.6855 416.912 16.3574L415.811 17.3945V17.4766H419.543V19ZM461.229 15.7129C461.229 16.3613 461.334 16.8516 461.545 17.1836C461.76 17.5156 462.107 17.6816 462.588 17.6816C463.064 17.6816 463.406 17.5176 463.613 17.1895C463.824 16.8574 463.93 16.3652 463.93 15.7129C463.93 15.0645 463.824 14.5781 463.613 14.2539C463.402 13.9297 463.057 13.7676 462.576 13.7676C462.1 13.7676 461.756 13.9297 461.545 14.2539C461.334 14.5742 461.229 15.0605 461.229 15.7129ZM465.758 15.7129C465.758 16.7793 465.477 17.6133 464.914 18.2148C464.352 18.8164 463.568 19.1172 462.564 19.1172C461.936 19.1172 461.381 18.9805 460.9 18.707C460.42 18.4297 460.051 18.0332 459.793 17.5176C459.535 17.002 459.406 16.4004 459.406 15.7129C459.406 14.6426 459.686 13.8105 460.244 13.2168C460.803 12.623 461.588 12.3262 462.6 12.3262C463.229 12.3262 463.783 12.4629 464.264 12.7363C464.744 13.0098 465.113 13.4023 465.371 13.9141C465.629 14.4258 465.758 15.0254 465.758 15.7129ZM470.855 13.791H469.309V19H467.521V13.791H466.537V12.9297L467.521 12.4492V11.9688C467.521 11.2227 467.705 10.6777 468.072 10.334C468.439 9.99023 469.027 9.81836 469.836 9.81836C470.453 9.81836 471.002 9.91016 471.482 10.0938L471.025 11.4062C470.666 11.293 470.334 11.2363 470.029 11.2363C469.775 11.2363 469.592 11.3125 469.479 11.4648C469.365 11.6133 469.309 11.8047 469.309 12.0391V12.4492H470.855V13.791ZM475.502 13.791H473.955V19H472.168V13.791H471.184V12.9297L472.168 12.4492V11.9688C472.168 11.2227 472.352 10.6777 472.719 10.334C473.086 9.99023 473.674 9.81836 474.482 9.81836C475.1 9.81836 475.648 9.91016 476.129 10.0938L475.672 11.4062C475.312 11.293 474.98 11.2363 474.676 11.2363C474.422 11.2363 474.238 11.3125 474.125 11.4648C474.012 11.6133 473.955 11.8047 473.955 12.0391V12.4492H475.502V13.791ZM476.434 10.7559C476.434 10.1738 476.758 9.88281 477.406 9.88281C478.055 9.88281 478.379 10.1738 478.379 10.7559C478.379 11.0332 478.297 11.25 478.133 11.4062C477.973 11.5586 477.73 11.6348 477.406 11.6348C476.758 11.6348 476.434 11.3418 476.434 10.7559ZM478.297 19H476.51V12.4492H478.297V19ZM482.832 19.1172C480.793 19.1172 479.773 17.998 479.773 15.7598C479.773 14.6465 480.051 13.7969 480.605 13.2109C481.16 12.6211 481.955 12.3262 482.99 12.3262C483.748 12.3262 484.428 12.4746 485.029 12.7715L484.502 14.1543C484.221 14.041 483.959 13.9492 483.717 13.8789C483.475 13.8047 483.232 13.7676 482.99 13.7676C482.061 13.7676 481.596 14.4277 481.596 15.748C481.596 17.0293 482.061 17.6699 482.99 17.6699C483.334 17.6699 483.652 17.625 483.945 17.5352C484.238 17.4414 484.531 17.2969 484.824 17.1016V18.6309C484.535 18.8145 484.242 18.9414 483.945 19.0117C483.652 19.082 483.281 19.1172 482.832 19.1172ZM489.061 13.5977C488.682 13.5977 488.385 13.7188 488.17 13.9609C487.955 14.1992 487.832 14.5391 487.801 14.9805H490.309C490.301 14.5391 490.186 14.1992 489.963 13.9609C489.74 13.7188 489.439 13.5977 489.061 13.5977ZM489.312 19.1172C488.258 19.1172 487.434 18.8262 486.84 18.2441C486.246 17.6621 485.949 16.8379 485.949 15.7715C485.949 14.6738 486.223 13.8262 486.77 13.2285C487.32 12.627 488.08 12.3262 489.049 12.3262C489.975 12.3262 490.695 12.5898 491.211 13.1172C491.727 13.6445 491.984 14.373 491.984 15.3027V16.1699H487.76C487.779 16.6777 487.93 17.0742 488.211 17.3594C488.492 17.6445 488.887 17.7871 489.395 17.7871C489.789 17.7871 490.162 17.7461 490.514 17.6641C490.865 17.582 491.232 17.4512 491.615 17.2715V18.6543C491.303 18.8105 490.969 18.9258 490.613 19C490.258 19.0781 489.824 19.1172 489.312 19.1172ZM502.666 14.5938C502.666 15.1562 502.576 15.6719 502.396 16.1406C502.217 16.6055 501.963 16.9707 501.635 17.2363C501.307 17.502 500.926 17.6348 500.492 17.6348C500.203 17.6348 499.947 17.5664 499.725 17.4297C499.502 17.2891 499.342 17.1055 499.244 16.8789H499.15C498.729 17.3828 498.191 17.6348 497.539 17.6348C496.848 17.6348 496.303 17.4277 495.904 17.0137C495.506 16.5957 495.307 16.0254 495.307 15.3027C495.307 14.4785 495.568 13.8145 496.092 13.3105C496.615 12.8066 497.299 12.5547 498.143 12.5547C498.479 12.5547 498.848 12.5879 499.25 12.6543C499.656 12.7168 499.99 12.793 500.252 12.8828L500.117 15.748C500.117 16.291 500.266 16.5625 500.562 16.5625C500.812 16.5625 501.012 16.3809 501.16 16.0176C501.309 15.6504 501.383 15.1719 501.383 14.582C501.383 13.9531 501.252 13.3984 500.99 12.918C500.729 12.4336 500.359 12.0645 499.883 11.8105C499.41 11.5566 498.869 11.4297 498.26 11.4297C497.471 11.4297 496.785 11.5918 496.203 11.916C495.621 12.2402 495.174 12.709 494.861 13.3223C494.553 13.9316 494.398 14.6367 494.398 15.4375C494.398 16.5156 494.686 17.3438 495.26 17.9219C495.838 18.4961 496.674 18.7832 497.768 18.7832C498.182 18.7832 498.637 18.7383 499.133 18.6484C499.629 18.5547 500.117 18.4199 500.598 18.2441V19.3691C499.762 19.7246 498.834 19.9023 497.814 19.9023C496.33 19.9023 495.172 19.5117 494.34 18.7305C493.512 17.9492 493.098 16.8633 493.098 15.4727C493.098 14.5078 493.309 13.6328 493.73 12.8477C494.156 12.0586 494.76 11.4414 495.541 10.9961C496.326 10.5469 497.229 10.3223 498.248 10.3223C499.107 10.3223 499.875 10.498 500.551 10.8496C501.227 11.2012 501.748 11.7012 502.115 12.3496C502.482 12.998 502.666 13.7461 502.666 14.5938ZM496.666 15.3262C496.666 16.1504 497.002 16.5625 497.674 16.5625C498.025 16.5625 498.293 16.4395 498.477 16.1934C498.66 15.9434 498.771 15.5391 498.811 14.9805L498.887 13.6855C498.688 13.6426 498.463 13.6211 498.213 13.6211C497.725 13.6211 497.344 13.7734 497.07 14.0781C496.801 14.3828 496.666 14.7988 496.666 15.3262ZM510.072 19H508.285V15.1738C508.285 14.7012 508.205 14.3477 508.045 14.1133C507.889 13.875 507.641 13.7559 507.301 13.7559C506.844 13.7559 506.512 13.9238 506.305 14.2598C506.098 14.5957 505.994 15.1484 505.994 15.918V19H504.207V12.4492H505.572L505.812 13.2871H505.912C506.088 12.9863 506.342 12.752 506.674 12.584C507.006 12.4121 507.387 12.3262 507.816 12.3262C508.797 12.3262 509.461 12.6465 509.809 13.2871H509.967C510.143 12.9824 510.4 12.7461 510.74 12.5781C511.084 12.4102 511.471 12.3262 511.9 12.3262C512.643 12.3262 513.203 12.5176 513.582 12.9004C513.965 13.2793 514.156 13.8887 514.156 14.7285V19H512.363V15.1738C512.363 14.7012 512.283 14.3477 512.123 14.1133C511.967 13.875 511.719 13.7559 511.379 13.7559C510.941 13.7559 510.613 13.9121 510.395 14.2246C510.18 14.5371 510.072 15.0332 510.072 15.7129V19ZM515.92 10.7559C515.92 10.1738 516.244 9.88281 516.893 9.88281C517.541 9.88281 517.865 10.1738 517.865 10.7559C517.865 11.0332 517.783 11.25 517.619 11.4062C517.459 11.5586 517.217 11.6348 516.893 11.6348C516.244 11.6348 515.92 11.3418 515.92 10.7559ZM517.783 19H515.996V12.4492H517.783V19ZM525.711 19H523.924V15.1738C523.924 14.7012 523.84 14.3477 523.672 14.1133C523.504 13.875 523.236 13.7559 522.869 13.7559C522.369 13.7559 522.008 13.9238 521.785 14.2598C521.562 14.5918 521.451 15.1445 521.451 15.918V19H519.664V12.4492H521.029L521.27 13.2871H521.369C521.568 12.9707 521.842 12.7324 522.189 12.5723C522.541 12.4082 522.939 12.3262 523.385 12.3262C524.146 12.3262 524.725 12.5332 525.119 12.9473C525.514 13.3574 525.711 13.9512 525.711 14.7285V19ZM529.625 19.1172C528.855 19.1172 528.25 18.8184 527.809 18.2207C527.371 17.623 527.152 16.7949 527.152 15.7363C527.152 14.6621 527.375 13.8262 527.82 13.2285C528.27 12.627 528.887 12.3262 529.672 12.3262C530.496 12.3262 531.125 12.6465 531.559 13.2871H531.617C531.527 12.7988 531.482 12.3633 531.482 11.9805V9.88281H533.275V19H531.904L531.559 18.1504H531.482C531.076 18.7949 530.457 19.1172 529.625 19.1172ZM530.252 17.6934C530.709 17.6934 531.043 17.5605 531.254 17.2949C531.469 17.0293 531.586 16.5781 531.605 15.9414V15.748C531.605 15.0449 531.496 14.541 531.277 14.2363C531.062 13.9316 530.711 13.7793 530.223 13.7793C529.824 13.7793 529.514 13.9492 529.291 14.2891C529.072 14.625 528.963 15.1152 528.963 15.7598C528.963 16.4043 529.074 16.8887 529.297 17.2129C529.52 17.5332 529.838 17.6934 530.252 17.6934ZM538.789 12.3262C539.562 12.3262 540.168 12.6289 540.605 13.2344C541.043 13.8359 541.262 14.6621 541.262 15.7129C541.262 16.7949 541.035 17.6328 540.582 18.2266C540.133 18.8203 539.52 19.1172 538.742 19.1172C537.973 19.1172 537.369 18.8379 536.932 18.2793H536.809L536.51 19H535.145V9.88281H536.932V12.0039C536.932 12.2734 536.908 12.7051 536.861 13.2988H536.932C537.35 12.6504 537.969 12.3262 538.789 12.3262ZM538.215 13.7559C537.773 13.7559 537.451 13.8926 537.248 14.166C537.045 14.4355 536.939 14.8828 536.932 15.5078V15.7012C536.932 16.4043 537.035 16.9082 537.242 17.2129C537.453 17.5176 537.785 17.6699 538.238 17.6699C538.605 17.6699 538.896 17.502 539.111 17.166C539.33 16.8262 539.439 16.334 539.439 15.6895C539.439 15.0449 539.33 14.5625 539.111 14.2422C538.893 13.918 538.594 13.7559 538.215 13.7559ZM544.525 19H542.738V9.88281H544.525V19ZM546.33 10.7559C546.33 10.1738 546.654 9.88281 547.303 9.88281C547.951 9.88281 548.275 10.1738 548.275 10.7559C548.275 11.0332 548.193 11.25 548.029 11.4062C547.869 11.5586 547.627 11.6348 547.303 11.6348C546.654 11.6348 546.33 11.3418 546.33 10.7559ZM548.193 19H546.406V12.4492H548.193V19ZM554.645 17.0547C554.645 17.7266 554.41 18.2383 553.941 18.5898C553.477 18.9414 552.779 19.1172 551.85 19.1172C551.373 19.1172 550.967 19.084 550.631 19.0176C550.295 18.9551 549.98 18.8613 549.688 18.7363V17.2598C550.02 17.416 550.393 17.5469 550.807 17.6523C551.225 17.7578 551.592 17.8105 551.908 17.8105C552.557 17.8105 552.881 17.623 552.881 17.248C552.881 17.1074 552.838 16.9941 552.752 16.9082C552.666 16.8184 552.518 16.7188 552.307 16.6094C552.096 16.4961 551.814 16.3652 551.463 16.2168C550.959 16.0059 550.588 15.8105 550.35 15.6309C550.115 15.4512 549.943 15.2461 549.834 15.0156C549.729 14.7812 549.676 14.4941 549.676 14.1543C549.676 13.5723 549.9 13.123 550.35 12.8066C550.803 12.4863 551.443 12.3262 552.271 12.3262C553.061 12.3262 553.828 12.498 554.574 12.8418L554.035 14.1309C553.707 13.9902 553.4 13.875 553.115 13.7852C552.83 13.6953 552.539 13.6504 552.242 13.6504C551.715 13.6504 551.451 13.793 551.451 14.0781C551.451 14.2383 551.535 14.377 551.703 14.4941C551.875 14.6113 552.248 14.7852 552.822 15.0156C553.334 15.2227 553.709 15.416 553.947 15.5957C554.186 15.7754 554.361 15.9824 554.475 16.2168C554.588 16.4512 554.645 16.7305 554.645 17.0547ZM558.799 17.6934C559.111 17.6934 559.486 17.625 559.924 17.4883V18.8184C559.479 19.0176 558.932 19.1172 558.283 19.1172C557.568 19.1172 557.047 18.9375 556.719 18.5781C556.395 18.2148 556.232 17.6719 556.232 16.9492V13.791H555.377V13.0352L556.361 12.4375L556.877 11.0547H558.02V12.4492H559.854V13.791H558.02V16.9492C558.02 17.2031 558.09 17.3906 558.23 17.5117C558.375 17.6328 558.564 17.6934 558.799 17.6934ZM563.967 13.5977C563.588 13.5977 563.291 13.7188 563.076 13.9609C562.861 14.1992 562.738 14.5391 562.707 14.9805H565.215C565.207 14.5391 565.092 14.1992 564.869 13.9609C564.646 13.7188 564.346 13.5977 563.967 13.5977ZM564.219 19.1172C563.164 19.1172 562.34 18.8262 561.746 18.2441C561.152 17.6621 560.855 16.8379 560.855 15.7715C560.855 14.6738 561.129 13.8262 561.676 13.2285C562.227 12.627 562.986 12.3262 563.955 12.3262C564.881 12.3262 565.602 12.5898 566.117 13.1172C566.633 13.6445 566.891 14.373 566.891 15.3027V16.1699H562.666C562.686 16.6777 562.836 17.0742 563.117 17.3594C563.398 17.6445 563.793 17.7871 564.301 17.7871C564.695 17.7871 565.068 17.7461 565.42 17.6641C565.771 17.582 566.139 17.4512 566.521 17.2715V18.6543C566.209 18.8105 565.875 18.9258 565.52 19C565.164 19.0781 564.73 19.1172 564.219 19.1172ZM572 12.3262C572.242 12.3262 572.443 12.3438 572.604 12.3789L572.469 14.0547C572.324 14.0156 572.148 13.9961 571.941 13.9961C571.371 13.9961 570.926 14.1426 570.605 14.4355C570.289 14.7285 570.131 15.1387 570.131 15.666V19H568.344V12.4492H569.697L569.961 13.5508H570.049C570.252 13.1836 570.525 12.8887 570.869 12.666C571.217 12.4395 571.594 12.3262 572 12.3262ZM573.541 18.1621C573.541 17.834 573.629 17.5859 573.805 17.418C573.98 17.25 574.236 17.166 574.572 17.166C574.896 17.166 575.146 17.252 575.322 17.4238C575.502 17.5957 575.592 17.8418 575.592 18.1621C575.592 18.4707 575.502 18.7148 575.322 18.8945C575.143 19.0703 574.893 19.1582 574.572 19.1582C574.244 19.1582 573.99 19.0723 573.811 18.9004C573.631 18.7246 573.541 18.4785 573.541 18.1621ZM579.875 19.1172C577.836 19.1172 576.816 17.998 576.816 15.7598C576.816 14.6465 577.094 13.7969 577.648 13.2109C578.203 12.6211 578.998 12.3262 580.033 12.3262C580.791 12.3262 581.471 12.4746 582.072 12.7715L581.545 14.1543C581.264 14.041 581.002 13.9492 580.76 13.8789C580.518 13.8047 580.275 13.7676 580.033 13.7676C579.104 13.7676 578.639 14.4277 578.639 15.748C578.639 17.0293 579.104 17.6699 580.033 17.6699C580.377 17.6699 580.695 17.625 580.988 17.5352C581.281 17.4414 581.574 17.2969 581.867 17.1016V18.6309C581.578 18.8145 581.285 18.9414 580.988 19.0117C580.695 19.082 580.324 19.1172 579.875 19.1172ZM584.814 15.7129C584.814 16.3613 584.92 16.8516 585.131 17.1836C585.346 17.5156 585.693 17.6816 586.174 17.6816C586.65 17.6816 586.992 17.5176 587.199 17.1895C587.41 16.8574 587.516 16.3652 587.516 15.7129C587.516 15.0645 587.41 14.5781 587.199 14.2539C586.988 13.9297 586.643 13.7676 586.162 13.7676C585.686 13.7676 585.342 13.9297 585.131 14.2539C584.92 14.5742 584.814 15.0605 584.814 15.7129ZM589.344 15.7129C589.344 16.7793 589.062 17.6133 588.5 18.2148C587.938 18.8164 587.154 19.1172 586.15 19.1172C585.521 19.1172 584.967 18.9805 584.486 18.707C584.006 18.4297 583.637 18.0332 583.379 17.5176C583.121 17.002 582.992 16.4004 582.992 15.7129C582.992 14.6426 583.271 13.8105 583.83 13.2168C584.389 12.623 585.174 12.3262 586.186 12.3262C586.814 12.3262 587.369 12.4629 587.85 12.7363C588.33 13.0098 588.699 13.4023 588.957 13.9141C589.215 14.4258 589.344 15.0254 589.344 15.7129ZM596.686 19H594.898V15.1738C594.898 14.7012 594.818 14.3477 594.658 14.1133C594.502 13.875 594.254 13.7559 593.914 13.7559C593.457 13.7559 593.125 13.9238 592.918 14.2598C592.711 14.5957 592.607 15.1484 592.607 15.918V19H590.82V12.4492H592.186L592.426 13.2871H592.525C592.701 12.9863 592.955 12.752 593.287 12.584C593.619 12.4121 594 12.3262 594.43 12.3262C595.41 12.3262 596.074 12.6465 596.422 13.2871H596.58C596.756 12.9824 597.014 12.7461 597.354 12.5781C597.697 12.4102 598.084 12.3262 598.514 12.3262C599.256 12.3262 599.816 12.5176 600.195 12.9004C600.578 13.2793 600.77 13.8887 600.77 14.7285V19H598.977V15.1738C598.977 14.7012 598.896 14.3477 598.736 14.1133C598.58 13.875 598.332 13.7559 597.992 13.7559C597.555 13.7559 597.227 13.9121 597.008 14.2246C596.793 14.5371 596.686 15.0332 596.686 15.7129V19Z" fill="#333" fill-opacity=".5"/></g><defs><clipPath id="clip0"><path fill="#fff" transform="translate(-70 -5958)" d="M0 0H1440V6677H0z"/></clipPath></defs></svg>