<svg width="22" height="29" viewBox="0 0 22 29" fill="none" xmlns="http://www.w3.org/2000/svg"><g clip-path="url(#clip0)"><path transform="translate(-276 -5959)" fill="#fff" d="M0 0H1440V6677H0z"/><path d="M-191.297 19.4766C-191.771 18.7839 -192.382 17.9089 -193.129 16.8516C-194.04 15.5391 -194.642 14.6549 -194.934 14.1992C-195.353 13.543 -195.635 12.9961 -195.781 12.5586C-195.927 12.1029 -196 11.5833 -196 11C-196 10.0521 -195.763 9.17708 -195.289 8.375C-194.815 7.57292 -194.177 6.9349 -193.375 6.46094C-192.573 5.98698 -191.698 5.75 -190.75 5.75C-189.802 5.75 -188.927 5.98698 -188.125 6.46094C-187.323 6.9349 -186.685 7.57292 -186.211 8.375C-185.737 9.17708 -185.5 10.0521 -185.5 11C-185.5 11.5833 -185.573 12.1029 -185.719 12.5586C-185.865 12.9961 -186.147 13.543 -186.566 14.1992C-186.858 14.6549 -187.46 15.5391 -188.371 16.8516L-190.203 19.4766C-190.331 19.6589 -190.513 19.75 -190.75 19.75C-190.987 19.75 -191.169 19.6589 -191.297 19.4766ZM-190.75 13.1875C-190.148 13.1875 -189.638 12.9779 -189.219 12.5586C-188.781 12.1211 -188.562 11.6016 -188.562 11C-188.562 10.3984 -188.781 9.88802 -189.219 9.46875C-189.638 9.03125 -190.148 8.8125 -190.75 8.8125C-191.352 8.8125 -191.871 9.03125 -192.309 9.46875C-192.728 9.88802 -192.938 10.3984 -192.938 11C-192.938 11.6016 -192.728 12.1211 -192.309 12.5586C-191.871 12.9779 -191.352 13.1875 -190.75 13.1875ZM15.8672 6.43359L13.0234 5.77734C12.8776 5.74089 12.7318 5.75911 12.5859 5.83203C12.4401 5.90495 12.3398 6.00521 12.2852 6.13281L10.9727 9.19531C10.918 9.34115 10.9089 9.48698 10.9453 9.63281C10.9818 9.76042 11.0547 9.86979 11.1641 9.96094L12.8047 11.3281C12.3125 12.3854 11.6471 13.3333 10.8086 14.1719C9.98828 15.0104 9.04036 15.6758 7.96484 16.168L6.625 14.5273C6.53385 14.3997 6.41536 14.3268 6.26953 14.3086C6.1237 14.2721 5.98698 14.2812 5.85938 14.3359L2.79688 15.6484C2.65104 15.7031 2.54167 15.8034 2.46875 15.9492C2.39583 16.0951 2.3776 16.2409 2.41406 16.3867L3.07031 19.2305C3.08854 19.3945 3.16146 19.5221 3.28906 19.6133C3.41667 19.7044 3.55339 19.75 3.69922 19.75C5.99609 19.75 8.12891 19.1758 10.0977 18.0273C12.0117 16.8971 13.5339 15.375 14.6641 13.4609C15.8125 11.4922 16.3867 9.35938 16.3867 7.0625C16.3867 6.91667 16.3411 6.77995 16.25 6.65234C16.1589 6.52474 16.0312 6.45182 15.8672 6.43359ZM243.242 10.9727C243.297 10.918 243.352 10.9089 243.406 10.9453C243.479 10.9818 243.516 11.0365 243.516 11.1094V16.6875C243.516 17.0521 243.388 17.362 243.133 17.6172C242.878 17.8724 242.568 18 242.203 18H230.828C230.464 18 230.154 17.8724 229.898 17.6172C229.643 17.362 229.516 17.0521 229.516 16.6875V11.1094C229.516 11.0365 229.543 10.9909 229.598 10.9727C229.671 10.9362 229.734 10.9362 229.789 10.9727C230.391 11.4284 231.794 12.4583 234 14.0625L234.273 14.3086C234.711 14.6367 235.057 14.8737 235.312 15.0195C235.75 15.2565 236.151 15.375 236.516 15.375C236.88 15.375 237.281 15.2474 237.719 14.9922C237.992 14.8464 238.339 14.6094 238.758 14.2812L239.031 14.0625C241.182 12.513 242.586 11.4831 243.242 10.9727ZM236.516 14.5C236.753 14.5 237.044 14.3906 237.391 14.1719C237.591 14.0625 237.874 13.862 238.238 13.5703L238.512 13.3789C240.809 11.7201 242.349 10.5807 243.133 9.96094L243.27 9.85156C243.434 9.72396 243.516 9.55078 243.516 9.33203V8.8125C243.516 8.44792 243.388 8.13802 243.133 7.88281C242.878 7.6276 242.568 7.5 242.203 7.5H230.828C230.464 7.5 230.154 7.6276 229.898 7.88281C229.643 8.13802 229.516 8.44792 229.516 8.8125V9.33203C229.516 9.55078 229.598 9.72396 229.762 9.85156L229.953 9.98828C230.755 10.6081 232.277 11.7383 234.52 13.3789L234.793 13.5703C235.158 13.862 235.44 14.0625 235.641 14.1719C235.987 14.3906 236.279 14.5 236.516 14.5Z" fill="#E8C300"/><path d="M-172.551 12.5273C-171.723 12.5273 -171.064 12.7598 -170.576 13.2246C-170.084 13.6895 -169.838 14.3262 -169.838 15.1348C-169.838 16.0918 -170.133 16.8281 -170.723 17.3438C-171.312 17.8594 -172.156 18.1172 -173.254 18.1172C-174.207 18.1172 -174.977 17.9629 -175.562 17.6543V16.0898C-175.254 16.2539 -174.895 16.3887 -174.484 16.4941C-174.074 16.5957 -173.686 16.6465 -173.318 16.6465C-172.213 16.6465 -171.66 16.1934 -171.66 15.2871C-171.66 14.4238 -172.232 13.9922 -173.377 13.9922C-173.584 13.9922 -173.812 14.0137 -174.062 14.0566C-174.312 14.0957 -174.516 14.1387 -174.672 14.1855L-175.393 13.7988L-175.07 9.43359H-170.424V10.9688H-173.482L-173.641 12.6504L-173.436 12.6094C-173.197 12.5547 -172.902 12.5273 -172.551 12.5273ZM-165.596 16.6934C-165.283 16.6934 -164.908 16.625 -164.471 16.4883V17.8184C-164.916 18.0176 -165.463 18.1172 -166.111 18.1172C-166.826 18.1172 -167.348 17.9375 -167.676 17.5781C-168 17.2148 -168.162 16.6719 -168.162 15.9492V12.791H-169.018V12.0352L-168.033 11.4375L-167.518 10.0547H-166.375V11.4492H-164.541V12.791H-166.375V15.9492C-166.375 16.2031 -166.305 16.3906 -166.164 16.5117C-166.02 16.6328 -165.83 16.6934 -165.596 16.6934ZM-157.094 18H-158.881V14.1738C-158.881 13.2285 -159.232 12.7559 -159.936 12.7559C-160.436 12.7559 -160.797 12.9258 -161.02 13.2656C-161.242 13.6055 -161.354 14.1562 -161.354 14.918V18H-163.141V8.88281H-161.354V10.7402C-161.354 10.8848 -161.367 11.2246 -161.395 11.7598L-161.436 12.2871H-161.342C-160.943 11.6465 -160.311 11.3262 -159.443 11.3262C-158.674 11.3262 -158.09 11.5332 -157.691 11.9473C-157.293 12.3613 -157.094 12.9551 -157.094 13.7285V18ZM-151.996 18V9.43359H-150.18V16.5H-146.705V18H-151.996ZM-143.928 14.7129C-143.928 15.3613 -143.822 15.8516 -143.611 16.1836C-143.396 16.5156 -143.049 16.6816 -142.568 16.6816C-142.092 16.6816 -141.75 16.5176 -141.543 16.1895C-141.332 15.8574 -141.227 15.3652 -141.227 14.7129C-141.227 14.0645 -141.332 13.5781 -141.543 13.2539C-141.754 12.9297 -142.1 12.7676 -142.58 12.7676C-143.057 12.7676 -143.4 12.9297 -143.611 13.2539C-143.822 13.5742 -143.928 14.0605 -143.928 14.7129ZM-139.398 14.7129C-139.398 15.7793 -139.68 16.6133 -140.242 17.2148C-140.805 17.8164 -141.588 18.1172 -142.592 18.1172C-143.221 18.1172 -143.775 17.9805 -144.256 17.707C-144.736 17.4297 -145.105 17.0332 -145.363 16.5176C-145.621 16.002 -145.75 15.4004 -145.75 14.7129C-145.75 13.6426 -145.471 12.8105 -144.912 12.2168C-144.354 11.623 -143.568 11.3262 -142.557 11.3262C-141.928 11.3262 -141.373 11.4629 -140.893 11.7363C-140.412 12.0098 -140.043 12.4023 -139.785 12.9141C-139.527 13.4258 -139.398 14.0254 -139.398 14.7129ZM-131.875 18H-133.662V14.1738C-133.662 13.7012 -133.746 13.3477 -133.914 13.1133C-134.082 12.875 -134.35 12.7559 -134.717 12.7559C-135.217 12.7559 -135.578 12.9238 -135.801 13.2598C-136.023 13.5918 -136.135 14.1445 -136.135 14.918V18H-137.922V11.4492H-136.557L-136.316 12.2871H-136.217C-136.018 11.9707 -135.744 11.7324 -135.396 11.5723C-135.045 11.4082 -134.646 11.3262 -134.201 11.3262C-133.439 11.3262 -132.861 11.5332 -132.467 11.9473C-132.072 12.3574 -131.875 12.9512 -131.875 13.7285V18ZM-127.961 18.1172C-128.73 18.1172 -129.336 17.8184 -129.777 17.2207C-130.215 16.623 -130.434 15.7949 -130.434 14.7363C-130.434 13.6621 -130.211 12.8262 -129.766 12.2285C-129.316 11.627 -128.699 11.3262 -127.914 11.3262C-127.09 11.3262 -126.461 11.6465 -126.027 12.2871H-125.969C-126.059 11.7988 -126.104 11.3633 -126.104 10.9805V8.88281H-124.311V18H-125.682L-126.027 17.1504H-126.104C-126.51 17.7949 -127.129 18.1172 -127.961 18.1172ZM-127.334 16.6934C-126.877 16.6934 -126.543 16.5605 -126.332 16.2949C-126.117 16.0293 -126 15.5781 -125.98 14.9414V14.748C-125.98 14.0449 -126.09 13.541 -126.309 13.2363C-126.523 12.9316 -126.875 12.7793 -127.363 12.7793C-127.762 12.7793 -128.072 12.9492 -128.295 13.2891C-128.514 13.625 -128.623 14.1152 -128.623 14.7598C-128.623 15.4043 -128.512 15.8887 -128.289 16.2129C-128.066 16.5332 -127.748 16.6934 -127.334 16.6934ZM-121.018 14.7129C-121.018 15.3613 -120.912 15.8516 -120.701 16.1836C-120.486 16.5156 -120.139 16.6816 -119.658 16.6816C-119.182 16.6816 -118.84 16.5176 -118.633 16.1895C-118.422 15.8574 -118.316 15.3652 -118.316 14.7129C-118.316 14.0645 -118.422 13.5781 -118.633 13.2539C-118.844 12.9297 -119.189 12.7676 -119.67 12.7676C-120.146 12.7676 -120.49 12.9297 -120.701 13.2539C-120.912 13.5742 -121.018 14.0605 -121.018 14.7129ZM-116.488 14.7129C-116.488 15.7793 -116.77 16.6133 -117.332 17.2148C-117.895 17.8164 -118.678 18.1172 -119.682 18.1172C-120.311 18.1172 -120.865 17.9805 -121.346 17.707C-121.826 17.4297 -122.195 17.0332 -122.453 16.5176C-122.711 16.002 -122.84 15.4004 -122.84 14.7129C-122.84 13.6426 -122.561 12.8105 -122.002 12.2168C-121.443 11.623 -120.658 11.3262 -119.646 11.3262C-119.018 11.3262 -118.463 11.4629 -117.982 11.7363C-117.502 12.0098 -117.133 12.4023 -116.875 12.9141C-116.617 13.4258 -116.488 14.0254 -116.488 14.7129ZM-108.965 18H-110.752V14.1738C-110.752 13.7012 -110.836 13.3477 -111.004 13.1133C-111.172 12.875 -111.439 12.7559 -111.807 12.7559C-112.307 12.7559 -112.668 12.9238 -112.891 13.2598C-113.113 13.5918 -113.225 14.1445 -113.225 14.918V18H-115.012V11.4492H-113.646L-113.406 12.2871H-113.307C-113.107 11.9707 -112.834 11.7324 -112.486 11.5723C-112.135 11.4082 -111.736 11.3262 -111.291 11.3262C-110.529 11.3262 -109.951 11.5332 -109.557 11.9473C-109.162 12.3574 -108.965 12.9512 -108.965 13.7285V18ZM-103.867 9.43359H-101.201C-99.9863 9.43359 -99.1055 9.60742 -98.5586 9.95508C-98.0078 10.2988 -97.7324 10.8477 -97.7324 11.6016C-97.7324 12.1133 -97.8535 12.5332 -98.0957 12.8613C-98.334 13.1895 -98.6523 13.3867 -99.0508 13.4531V13.5117C-98.5078 13.6328 -98.1172 13.8594 -97.8789 14.1914C-97.6367 14.5234 -97.5156 14.9648 -97.5156 15.5156C-97.5156 16.2969 -97.7988 16.9062 -98.3652 17.3438C-98.9277 17.7812 -99.6934 18 -100.662 18H-103.867V9.43359ZM-102.051 12.8262H-100.996C-100.504 12.8262 -100.148 12.75 -99.9297 12.5977C-99.707 12.4453 -99.5957 12.1934 -99.5957 11.8418C-99.5957 11.5137 -99.7168 11.2793 -99.959 11.1387C-100.197 10.9941 -100.576 10.9219 -101.096 10.9219H-102.051V12.8262ZM-102.051 14.2676V16.5H-100.867C-100.367 16.5 -99.998 16.4043 -99.7598 16.2129C-99.5215 16.0215 -99.4023 15.7285 -99.4023 15.334C-99.4023 14.623 -99.9102 14.2676 -100.926 14.2676H-102.051ZM-94.5215 14.7129C-94.5215 15.3613 -94.416 15.8516 -94.2051 16.1836C-93.9902 16.5156 -93.6426 16.6816 -93.1621 16.6816C-92.6855 16.6816 -92.3438 16.5176 -92.1367 16.1895C-91.9258 15.8574 -91.8203 15.3652 -91.8203 14.7129C-91.8203 14.0645 -91.9258 13.5781 -92.1367 13.2539C-92.3477 12.9297 -92.6934 12.7676 -93.1738 12.7676C-93.6504 12.7676 -93.9941 12.9297 -94.2051 13.2539C-94.416 13.5742 -94.5215 14.0605 -94.5215 14.7129ZM-89.9922 14.7129C-89.9922 15.7793 -90.2734 16.6133 -90.8359 17.2148C-91.3984 17.8164 -92.1816 18.1172 -93.1855 18.1172C-93.8145 18.1172 -94.3691 17.9805 -94.8496 17.707C-95.3301 17.4297 -95.6992 17.0332 -95.957 16.5176C-96.2148 16.002 -96.3438 15.4004 -96.3438 14.7129C-96.3438 13.6426 -96.0645 12.8105 -95.5059 12.2168C-94.9473 11.623 -94.1621 11.3262 -93.1504 11.3262C-92.5215 11.3262 -91.9668 11.4629 -91.4863 11.7363C-91.0059 12.0098 -90.6367 12.4023 -90.3789 12.9141C-90.1211 13.4258 -89.9922 14.0254 -89.9922 14.7129ZM-83.875 18L-84.1152 17.1621H-84.209C-84.4004 17.4668 -84.6719 17.7031 -85.0234 17.8711C-85.375 18.0352 -85.7754 18.1172 -86.2246 18.1172C-86.9941 18.1172 -87.5742 17.9121 -87.9648 17.502C-88.3555 17.0879 -88.5508 16.4941 -88.5508 15.7207V11.4492H-86.7637V15.2754C-86.7637 15.748 -86.6797 16.1035 -86.5117 16.3418C-86.3438 16.5762 -86.0762 16.6934 -85.709 16.6934C-85.209 16.6934 -84.8477 16.5273 -84.625 16.1953C-84.4023 15.8594 -84.291 15.3047 -84.291 14.5312V11.4492H-82.5039V18H-83.875ZM-78.8418 18H-80.6289V8.88281H-78.8418V18ZM-74.248 12.5977C-74.627 12.5977 -74.9238 12.7188 -75.1387 12.9609C-75.3535 13.1992 -75.4766 13.5391 -75.5078 13.9805H-73C-73.0078 13.5391 -73.123 13.1992 -73.3457 12.9609C-73.5684 12.7188 -73.8691 12.5977 -74.248 12.5977ZM-73.9961 18.1172C-75.0508 18.1172 -75.875 17.8262 -76.4688 17.2441C-77.0625 16.6621 -77.3594 15.8379 -77.3594 14.7715C-77.3594 13.6738 -77.0859 12.8262 -76.5391 12.2285C-75.9883 11.627 -75.2285 11.3262 -74.2598 11.3262C-73.334 11.3262 -72.6133 11.5898 -72.0977 12.1172C-71.582 12.6445 -71.3242 13.373 -71.3242 14.3027V15.1699H-75.5488C-75.5293 15.6777 -75.3789 16.0742 -75.0977 16.3594C-74.8164 16.6445 -74.4219 16.7871 -73.9141 16.7871C-73.5195 16.7871 -73.1465 16.7461 -72.7949 16.6641C-72.4434 16.582 -72.0762 16.4512 -71.6934 16.2715V17.6543C-72.0059 17.8105 -72.3398 17.9258 -72.6953 18C-73.0508 18.0781 -73.4844 18.1172 -73.9961 18.1172ZM-68.3125 18L-70.8086 11.4492H-68.9395L-67.6738 15.1816C-67.5332 15.6543 -67.4453 16.1016 -67.4102 16.5234H-67.375C-67.3555 16.1484 -67.2676 15.7012 -67.1113 15.1816L-65.8516 11.4492H-63.9824L-66.4785 18H-68.3125ZM-58.8789 18L-59.2246 17.1094H-59.2715C-59.5723 17.4883 -59.8828 17.752 -60.2031 17.9004C-60.5195 18.0449 -60.9336 18.1172 -61.4453 18.1172C-62.0742 18.1172 -62.5703 17.9375 -62.9336 17.5781C-63.293 17.2188 -63.4727 16.707 -63.4727 16.043C-63.4727 15.3477 -63.2305 14.8359 -62.7461 14.5078C-62.2578 14.1758 -61.5234 13.9922 -60.543 13.957L-59.4062 13.9219V13.6348C-59.4062 12.9707 -59.7461 12.6387 -60.4258 12.6387C-60.9492 12.6387 -61.5645 12.7969 -62.2715 13.1133L-62.8633 11.9062C-62.1094 11.5117 -61.2734 11.3145 -60.3555 11.3145C-59.4766 11.3145 -58.8027 11.5059 -58.334 11.8887C-57.8652 12.2715 -57.6309 12.8535 -57.6309 13.6348V18H-58.8789ZM-59.4062 14.9648L-60.0977 14.9883C-60.6172 15.0039 -61.0039 15.0977 -61.2578 15.2695C-61.5117 15.4414 -61.6387 15.7031 -61.6387 16.0547C-61.6387 16.5586 -61.3496 16.8105 -60.7715 16.8105C-60.3574 16.8105 -60.0273 16.6914 -59.7812 16.4531C-59.5312 16.2148 -59.4062 15.8984 -59.4062 15.5039V14.9648ZM-52.1289 11.3262C-51.8867 11.3262 -51.6855 11.3438 -51.5254 11.3789L-51.6602 13.0547C-51.8047 13.0156 -51.9805 12.9961 -52.1875 12.9961C-52.7578 12.9961 -53.2031 13.1426 -53.5234 13.4355C-53.8398 13.7285 -53.998 14.1387 -53.998 14.666V18H-55.7852V11.4492H-54.4316L-54.168 12.5508H-54.0801C-53.877 12.1836 -53.6035 11.8887 -53.2598 11.666C-52.9121 11.4395 -52.5352 11.3262 -52.1289 11.3262ZM-48.2617 18.1172C-49.0312 18.1172 -49.6367 17.8184 -50.0781 17.2207C-50.5156 16.623 -50.7344 15.7949 -50.7344 14.7363C-50.7344 13.6621 -50.5117 12.8262 -50.0664 12.2285C-49.6172 11.627 -49 11.3262 -48.2148 11.3262C-47.3906 11.3262 -46.7617 11.6465 -46.3281 12.2871H-46.2695C-46.3594 11.7988 -46.4043 11.3633 -46.4043 10.9805V8.88281H-44.6113V18H-45.9824L-46.3281 17.1504H-46.4043C-46.8105 17.7949 -47.4297 18.1172 -48.2617 18.1172ZM-47.6348 16.6934C-47.1777 16.6934 -46.8438 16.5605 -46.6328 16.2949C-46.418 16.0293 -46.3008 15.5781 -46.2812 14.9414V14.748C-46.2812 14.0449 -46.3906 13.541 -46.6094 13.2363C-46.8242 12.9316 -47.1758 12.7793 -47.6641 12.7793C-48.0625 12.7793 -48.373 12.9492 -48.5957 13.2891C-48.8145 13.625 -48.9238 14.1152 -48.9238 14.7598C-48.9238 15.4043 -48.8125 15.8887 -48.5898 16.2129C-48.3672 16.5332 -48.0488 16.6934 -47.6348 16.6934ZM-40.9902 16.7402C-41.1934 17.5293 -41.5371 18.4648 -42.0215 19.5469H-43.3105C-43.0566 18.5078 -42.8594 17.5273 -42.7188 16.6055H-41.0781L-40.9902 16.7402ZM-29.0312 9.43359V14.9766C-29.0312 15.6094 -29.1738 16.1641 -29.459 16.6406C-29.7402 17.1172 -30.1484 17.4824 -30.6836 17.7363C-31.2188 17.9902 -31.8516 18.1172 -32.582 18.1172C-33.6836 18.1172 -34.5391 17.8359 -35.1484 17.2734C-35.7578 16.707 -36.0625 15.9336 -36.0625 14.9531V9.43359H-34.252V14.6777C-34.252 15.3379 -34.1191 15.8223 -33.8535 16.1309C-33.5879 16.4395 -33.1484 16.5938 -32.5352 16.5938C-31.9414 16.5938 -31.5117 16.4395 -31.2461 16.1309C-30.9766 15.8184 -30.8418 15.3301 -30.8418 14.666V9.43359H-29.0312ZM-27.3262 17.1621C-27.3262 16.834 -27.2383 16.5859 -27.0625 16.418C-26.8867 16.25 -26.6309 16.166 -26.2949 16.166C-25.9707 16.166 -25.7207 16.252 -25.5449 16.4238C-25.3652 16.5957 -25.2754 16.8418 -25.2754 17.1621C-25.2754 17.4707 -25.3652 17.7148 -25.5449 17.8945C-25.7246 18.0703 -25.9746 18.1582 -26.2949 18.1582C-26.623 18.1582 -26.877 18.0723 -27.0566 17.9004C-27.2363 17.7246 -27.3262 17.4785 -27.3262 17.1621ZM-16.6211 18H-18.6836L-20.9277 14.3906L-21.6953 14.9414V18H-23.5117V9.43359H-21.6953V13.3535L-20.9805 12.3457L-18.6602 9.43359H-16.6445L-19.6328 13.2246L-16.6211 18ZM-15.9355 17.1621C-15.9355 16.834 -15.8477 16.5859 -15.6719 16.418C-15.4961 16.25 -15.2402 16.166 -14.9043 16.166C-14.5801 16.166 -14.3301 16.252 -14.1543 16.4238C-13.9746 16.5957 -13.8848 16.8418 -13.8848 17.1621C-13.8848 17.4707 -13.9746 17.7148 -14.1543 17.8945C-14.334 18.0703 -14.584 18.1582 -14.9043 18.1582C-15.2324 18.1582 -15.4863 18.0723 -15.666 17.9004C-15.8457 17.7246 -15.9355 17.4785 -15.9355 17.1621ZM28.5215 14.4141H26.2539V13.1309H28.5215V10.8457H29.8047V13.1309H32.0723V14.4141H29.8047V16.6699H28.5215V14.4141ZM39.2559 16.2246H38.2246V18H36.4551V16.2246H32.7988V14.9648L36.5547 9.43359H38.2246V14.8184H39.2559V16.2246ZM36.4551 14.8184V13.3652C36.4551 13.123 36.4648 12.7715 36.4844 12.3105C36.5039 11.8496 36.5195 11.582 36.5312 11.5078H36.4844C36.3398 11.8281 36.166 12.1406 35.9629 12.4453L34.3926 14.8184H36.4551ZM45.8711 13.7168C45.8711 15.2129 45.625 16.3203 45.1328 17.0391C44.6445 17.7578 43.8906 18.1172 42.8711 18.1172C41.8828 18.1172 41.1367 17.7461 40.6328 17.0039C40.1328 16.2617 39.8828 15.166 39.8828 13.7168C39.8828 12.2051 40.127 11.0918 40.6152 10.377C41.1035 9.6582 41.8555 9.29883 42.8711 9.29883C43.8594 9.29883 44.6055 9.67383 45.1094 10.4238C45.6172 11.1738 45.8711 12.2715 45.8711 13.7168ZM41.6816 13.7168C41.6816 14.7676 41.7715 15.5215 41.9512 15.9785C42.1348 16.4316 42.4414 16.6582 42.8711 16.6582C43.293 16.6582 43.5977 16.4277 43.7852 15.9668C43.9727 15.5059 44.0664 14.7559 44.0664 13.7168C44.0664 12.666 43.9707 11.9121 43.7793 11.4551C43.5918 10.9941 43.2891 10.7637 42.8711 10.7637C42.4453 10.7637 42.1406 10.9941 41.957 11.4551C41.7734 11.9121 41.6816 12.666 41.6816 13.7168ZM50.752 18L53.9688 10.9688H49.7441V9.44531H55.8906V10.582L52.6504 18H50.752ZM62.7461 18H56.7578V16.7402L58.9082 14.5664C59.5449 13.9141 59.9609 13.4629 60.1562 13.2129C60.3516 12.959 60.4922 12.7246 60.5781 12.5098C60.6641 12.2949 60.707 12.0723 60.707 11.8418C60.707 11.498 60.6113 11.2422 60.4199 11.0742C60.2324 10.9062 59.9805 10.8223 59.6641 10.8223C59.332 10.8223 59.0098 10.8984 58.6973 11.0508C58.3848 11.2031 58.0586 11.4199 57.7188 11.7012L56.7344 10.5352C57.1562 10.1758 57.5059 9.92188 57.7832 9.77344C58.0605 9.625 58.3633 9.51172 58.6914 9.43359C59.0195 9.35156 59.3867 9.31055 59.793 9.31055C60.3281 9.31055 60.8008 9.4082 61.2109 9.60352C61.6211 9.79883 61.9395 10.0723 62.166 10.4238C62.3926 10.7754 62.5059 11.1777 62.5059 11.6309C62.5059 12.0254 62.4355 12.3965 62.2949 12.7441C62.1582 13.0879 61.9434 13.4414 61.6504 13.8047C61.3613 14.168 60.8496 14.6855 60.1152 15.3574L59.0137 16.3945V16.4766H62.7461V18ZM69.5664 13.0898C69.5664 14.7773 69.2109 16.0371 68.5 16.8691C67.7891 17.7012 66.7129 18.1172 65.2715 18.1172C64.7637 18.1172 64.3789 18.0898 64.1172 18.0352V16.582C64.4453 16.6641 64.7891 16.7051 65.1484 16.7051C65.7539 16.7051 66.252 16.6172 66.6426 16.4414C67.0332 16.2617 67.332 15.9824 67.5391 15.6035C67.7461 15.2207 67.8652 14.6953 67.8965 14.0273H67.8262C67.5996 14.3945 67.3379 14.6523 67.041 14.8008C66.7441 14.9492 66.373 15.0234 65.9277 15.0234C65.1816 15.0234 64.5938 14.7852 64.1641 14.3086C63.7344 13.8281 63.5195 13.1621 63.5195 12.3105C63.5195 11.3926 63.7793 10.668 64.2988 10.1367C64.8223 9.60156 65.5332 9.33398 66.4316 9.33398C67.0645 9.33398 67.6172 9.48242 68.0898 9.7793C68.5664 10.0762 68.9316 10.5078 69.1855 11.0742C69.4395 11.6367 69.5664 12.3086 69.5664 13.0898ZM66.4668 10.7871C66.0918 10.7871 65.7988 10.916 65.5879 11.1738C65.377 11.4316 65.2715 11.8027 65.2715 12.2871C65.2715 12.7012 65.3672 13.0293 65.5586 13.2715C65.75 13.5137 66.041 13.6348 66.4316 13.6348C66.7988 13.6348 67.1133 13.5156 67.375 13.2773C67.6367 13.0352 67.7676 12.7578 67.7676 12.4453C67.7676 11.9805 67.6445 11.5879 67.3984 11.2676C67.1562 10.9473 66.8457 10.7871 66.4668 10.7871ZM78.0625 18H76.252V13.043L76.2695 12.2285L76.2988 11.3379C75.998 11.6387 75.7891 11.8359 75.6719 11.9297L74.6875 12.7207L73.8145 11.6309L76.5742 9.43359H78.0625V18ZM86.0957 11.3496C86.0957 11.8848 85.9336 12.3398 85.6094 12.7148C85.2852 13.0898 84.8301 13.3477 84.2441 13.4883V13.5234C84.9355 13.6094 85.459 13.8203 85.8145 14.1562C86.1699 14.4883 86.3477 14.9375 86.3477 15.5039C86.3477 16.3281 86.0488 16.9707 85.4512 17.4316C84.8535 17.8887 84 18.1172 82.8906 18.1172C81.9609 18.1172 81.1367 17.9629 80.418 17.6543V16.1133C80.75 16.2812 81.1152 16.418 81.5137 16.5234C81.9121 16.6289 82.3066 16.6816 82.6973 16.6816C83.2949 16.6816 83.7363 16.5801 84.0215 16.377C84.3066 16.1738 84.4492 15.8477 84.4492 15.3984C84.4492 14.9961 84.2852 14.7109 83.957 14.543C83.6289 14.375 83.1055 14.291 82.3867 14.291H81.7363V12.9023H82.3984C83.0625 12.9023 83.5469 12.8164 83.8516 12.6445C84.1602 12.4688 84.3145 12.1699 84.3145 11.748C84.3145 11.0996 83.9082 10.7754 83.0957 10.7754C82.8145 10.7754 82.5273 10.8223 82.2344 10.916C81.9453 11.0098 81.623 11.1719 81.2676 11.4023L80.4297 10.1543C81.2109 9.5918 82.1426 9.31055 83.2246 9.31055C84.1113 9.31055 84.8105 9.49023 85.3223 9.84961C85.8379 10.209 86.0957 10.709 86.0957 11.3496ZM91.7734 18H89.9629V13.043L89.9805 12.2285L90.0098 11.3379C89.709 11.6387 89.5 11.8359 89.3828 11.9297L88.3984 12.7207L87.5254 11.6309L90.2852 9.43359H91.7734V18ZM97.2109 14.3613C97.2109 12.666 97.5684 11.4043 98.2832 10.5762C99.002 9.74805 100.076 9.33398 101.506 9.33398C101.994 9.33398 102.377 9.36328 102.654 9.42188V10.8691C102.307 10.791 101.963 10.752 101.623 10.752C101.002 10.752 100.494 10.8457 100.1 11.0332C99.709 11.2207 99.416 11.498 99.2207 11.8652C99.0254 12.2324 98.9102 12.7539 98.875 13.4297H98.9512C99.3379 12.7656 99.957 12.4336 100.809 12.4336C101.574 12.4336 102.174 12.6738 102.607 13.1543C103.041 13.6348 103.258 14.2988 103.258 15.1465C103.258 16.0605 103 16.7852 102.484 17.3203C101.969 17.8516 101.254 18.1172 100.34 18.1172C99.707 18.1172 99.1543 17.9707 98.6816 17.6777C98.2129 17.3848 97.8496 16.957 97.5918 16.3945C97.3379 15.832 97.2109 15.1543 97.2109 14.3613ZM100.305 16.6699C100.691 16.6699 100.988 16.541 101.195 16.2832C101.402 16.0215 101.506 15.6504 101.506 15.1699C101.506 14.752 101.408 14.4238 101.213 14.1855C101.021 13.9434 100.73 13.8223 100.34 13.8223C99.9727 13.8223 99.6582 13.9414 99.3965 14.1797C99.1387 14.418 99.0098 14.6953 99.0098 15.0117C99.0098 15.4766 99.1309 15.8691 99.373 16.1895C99.6191 16.5098 99.9297 16.6699 100.305 16.6699ZM109.779 11.3496C109.779 11.8848 109.617 12.3398 109.293 12.7148C108.969 13.0898 108.514 13.3477 107.928 13.4883V13.5234C108.619 13.6094 109.143 13.8203 109.498 14.1562C109.854 14.4883 110.031 14.9375 110.031 15.5039C110.031 16.3281 109.732 16.9707 109.135 17.4316C108.537 17.8887 107.684 18.1172 106.574 18.1172C105.645 18.1172 104.82 17.9629 104.102 17.6543V16.1133C104.434 16.2812 104.799 16.418 105.197 16.5234C105.596 16.6289 105.99 16.6816 106.381 16.6816C106.979 16.6816 107.42 16.5801 107.705 16.377C107.99 16.1738 108.133 15.8477 108.133 15.3984C108.133 14.9961 107.969 14.7109 107.641 14.543C107.312 14.375 106.789 14.291 106.07 14.291H105.42V12.9023H106.082C106.746 12.9023 107.23 12.8164 107.535 12.6445C107.844 12.4688 107.998 12.1699 107.998 11.748C107.998 11.0996 107.592 10.7754 106.779 10.7754C106.498 10.7754 106.211 10.8223 105.918 10.916C105.629 11.0098 105.307 11.1719 104.951 11.4023L104.113 10.1543C104.895 9.5918 105.826 9.31055 106.908 9.31055C107.795 9.31055 108.494 9.49023 109.006 9.84961C109.521 10.209 109.779 10.709 109.779 11.3496ZM111.83 18L115.047 10.9688H110.822V9.44531H116.969V10.582L113.729 18H111.83ZM122.254 9.43359L119.061 18H117.438L120.631 9.43359H122.254ZM125.096 14.4141H122.828V13.1309H125.096V10.8457H126.379V13.1309H128.646V14.4141H126.379V16.6699H125.096V14.4141ZM135.83 16.2246H134.799V18H133.029V16.2246H129.373V14.9648L133.129 9.43359H134.799V14.8184H135.83V16.2246ZM133.029 14.8184V13.3652C133.029 13.123 133.039 12.7715 133.059 12.3105C133.078 11.8496 133.094 11.582 133.105 11.5078H133.059C132.914 11.8281 132.74 12.1406 132.537 12.4453L130.967 14.8184H133.029ZM142.445 13.7168C142.445 15.2129 142.199 16.3203 141.707 17.0391C141.219 17.7578 140.465 18.1172 139.445 18.1172C138.457 18.1172 137.711 17.7461 137.207 17.0039C136.707 16.2617 136.457 15.166 136.457 13.7168C136.457 12.2051 136.701 11.0918 137.189 10.377C137.678 9.6582 138.43 9.29883 139.445 9.29883C140.434 9.29883 141.18 9.67383 141.684 10.4238C142.191 11.1738 142.445 12.2715 142.445 13.7168ZM138.256 13.7168C138.256 14.7676 138.346 15.5215 138.525 15.9785C138.709 16.4316 139.016 16.6582 139.445 16.6582C139.867 16.6582 140.172 16.4277 140.359 15.9668C140.547 15.5059 140.641 14.7559 140.641 13.7168C140.641 12.666 140.545 11.9121 140.354 11.4551C140.166 10.9941 139.863 10.7637 139.445 10.7637C139.02 10.7637 138.715 10.9941 138.531 11.4551C138.348 11.9121 138.256 12.666 138.256 13.7168ZM147.326 18L150.543 10.9688H146.318V9.44531H152.465V10.582L149.225 18H147.326ZM159.32 18H153.332V16.7402L155.482 14.5664C156.119 13.9141 156.535 13.4629 156.73 13.2129C156.926 12.959 157.066 12.7246 157.152 12.5098C157.238 12.2949 157.281 12.0723 157.281 11.8418C157.281 11.498 157.186 11.2422 156.994 11.0742C156.807 10.9062 156.555 10.8223 156.238 10.8223C155.906 10.8223 155.584 10.8984 155.271 11.0508C154.959 11.2031 154.633 11.4199 154.293 11.7012L153.309 10.5352C153.73 10.1758 154.08 9.92188 154.357 9.77344C154.635 9.625 154.938 9.51172 155.266 9.43359C155.594 9.35156 155.961 9.31055 156.367 9.31055C156.902 9.31055 157.375 9.4082 157.785 9.60352C158.195 9.79883 158.514 10.0723 158.74 10.4238C158.967 10.7754 159.08 11.1777 159.08 11.6309C159.08 12.0254 159.01 12.3965 158.869 12.7441C158.732 13.0879 158.518 13.4414 158.225 13.8047C157.936 14.168 157.424 14.6855 156.689 15.3574L155.588 16.3945V16.4766H159.32V18ZM160.129 14.3613C160.129 12.666 160.486 11.4043 161.201 10.5762C161.92 9.74805 162.994 9.33398 164.424 9.33398C164.912 9.33398 165.295 9.36328 165.572 9.42188V10.8691C165.225 10.791 164.881 10.752 164.541 10.752C163.92 10.752 163.412 10.8457 163.018 11.0332C162.627 11.2207 162.334 11.498 162.139 11.8652C161.943 12.2324 161.828 12.7539 161.793 13.4297H161.869C162.256 12.7656 162.875 12.4336 163.727 12.4336C164.492 12.4336 165.092 12.6738 165.525 13.1543C165.959 13.6348 166.176 14.2988 166.176 15.1465C166.176 16.0605 165.918 16.7852 165.402 17.3203C164.887 17.8516 164.172 18.1172 163.258 18.1172C162.625 18.1172 162.072 17.9707 161.6 17.6777C161.131 17.3848 160.768 16.957 160.51 16.3945C160.256 15.832 160.129 15.1543 160.129 14.3613ZM163.223 16.6699C163.609 16.6699 163.906 16.541 164.113 16.2832C164.32 16.0215 164.424 15.6504 164.424 15.1699C164.424 14.752 164.326 14.4238 164.131 14.1855C163.939 13.9434 163.648 13.8223 163.258 13.8223C162.891 13.8223 162.576 13.9414 162.314 14.1797C162.057 14.418 161.928 14.6953 161.928 15.0117C161.928 15.4766 162.049 15.8691 162.291 16.1895C162.537 16.5098 162.848 16.6699 163.223 16.6699ZM176.342 16.2246H175.311V18H173.541V16.2246H169.885V14.9648L173.641 9.43359H175.311V14.8184H176.342V16.2246ZM173.541 14.8184V13.3652C173.541 13.123 173.551 12.7715 173.57 12.3105C173.59 11.8496 173.605 11.582 173.617 11.5078H173.57C173.426 11.8281 173.252 12.1406 173.049 12.4453L171.479 14.8184H173.541ZM180.133 12.5273C180.961 12.5273 181.619 12.7598 182.107 13.2246C182.6 13.6895 182.846 14.3262 182.846 15.1348C182.846 16.0918 182.551 16.8281 181.961 17.3438C181.371 17.8594 180.527 18.1172 179.43 18.1172C178.477 18.1172 177.707 17.9629 177.121 17.6543V16.0898C177.43 16.2539 177.789 16.3887 178.199 16.4941C178.609 16.5957 178.998 16.6465 179.365 16.6465C180.471 16.6465 181.023 16.1934 181.023 15.2871C181.023 14.4238 180.451 13.9922 179.307 13.9922C179.1 13.9922 178.871 14.0137 178.621 14.0566C178.371 14.0957 178.168 14.1387 178.012 14.1855L177.291 13.7988L177.613 9.43359H182.26V10.9688H179.201L179.043 12.6504L179.248 12.6094C179.486 12.5547 179.781 12.5273 180.133 12.5273ZM186.824 9.32227C187.645 9.32227 188.305 9.50977 188.805 9.88477C189.309 10.2559 189.561 10.7578 189.561 11.3906C189.561 11.8281 189.439 12.2188 189.197 12.5625C188.955 12.9023 188.564 13.207 188.025 13.4766C188.666 13.8203 189.125 14.1797 189.402 14.5547C189.684 14.9258 189.824 15.334 189.824 15.7793C189.824 16.4824 189.549 17.0488 188.998 17.4785C188.447 17.9043 187.723 18.1172 186.824 18.1172C185.887 18.1172 185.15 17.918 184.615 17.5195C184.08 17.1211 183.812 16.5566 183.812 15.8262C183.812 15.3379 183.941 14.9043 184.199 14.5254C184.461 14.1465 184.879 13.8125 185.453 13.5234C184.965 13.2148 184.613 12.8848 184.398 12.5332C184.184 12.1816 184.076 11.7969 184.076 11.3789C184.076 10.7656 184.33 10.2695 184.838 9.89062C185.346 9.51172 186.008 9.32227 186.824 9.32227ZM185.488 15.7207C185.488 16.0566 185.605 16.3184 185.84 16.5059C186.074 16.6934 186.395 16.7871 186.801 16.7871C187.25 16.7871 187.586 16.6914 187.809 16.5C188.031 16.3047 188.143 16.0488 188.143 15.7324C188.143 15.4707 188.031 15.2266 187.809 15C187.59 14.7695 187.232 14.5254 186.736 14.2676C185.904 14.6504 185.488 15.1348 185.488 15.7207ZM186.812 10.6465C186.504 10.6465 186.254 10.7266 186.062 10.8867C185.875 11.043 185.781 11.2539 185.781 11.5195C185.781 11.7539 185.855 11.9648 186.004 12.1523C186.156 12.3359 186.43 12.5254 186.824 12.7207C187.207 12.541 187.475 12.3574 187.627 12.1699C187.779 11.9824 187.855 11.7656 187.855 11.5195C187.855 11.25 187.758 11.0371 187.562 10.8809C187.367 10.7246 187.117 10.6465 186.812 10.6465ZM194.693 18L197.91 10.9688H193.686V9.44531H199.832V10.582L196.592 18H194.693ZM203.652 9.32227C204.473 9.32227 205.133 9.50977 205.633 9.88477C206.137 10.2559 206.389 10.7578 206.389 11.3906C206.389 11.8281 206.268 12.2188 206.025 12.5625C205.783 12.9023 205.393 13.207 204.854 13.4766C205.494 13.8203 205.953 14.1797 206.23 14.5547C206.512 14.9258 206.652 15.334 206.652 15.7793C206.652 16.4824 206.377 17.0488 205.826 17.4785C205.275 17.9043 204.551 18.1172 203.652 18.1172C202.715 18.1172 201.979 17.918 201.443 17.5195C200.908 17.1211 200.641 16.5566 200.641 15.8262C200.641 15.3379 200.77 14.9043 201.027 14.5254C201.289 14.1465 201.707 13.8125 202.281 13.5234C201.793 13.2148 201.441 12.8848 201.227 12.5332C201.012 12.1816 200.904 11.7969 200.904 11.3789C200.904 10.7656 201.158 10.2695 201.666 9.89062C202.174 9.51172 202.836 9.32227 203.652 9.32227ZM202.316 15.7207C202.316 16.0566 202.434 16.3184 202.668 16.5059C202.902 16.6934 203.223 16.7871 203.629 16.7871C204.078 16.7871 204.414 16.6914 204.637 16.5C204.859 16.3047 204.971 16.0488 204.971 15.7324C204.971 15.4707 204.859 15.2266 204.637 15C204.418 14.7695 204.061 14.5254 203.564 14.2676C202.732 14.6504 202.316 15.1348 202.316 15.7207ZM203.641 10.6465C203.332 10.6465 203.082 10.7266 202.891 10.8867C202.703 11.043 202.609 11.2539 202.609 11.5195C202.609 11.7539 202.684 11.9648 202.832 12.1523C202.984 12.3359 203.258 12.5254 203.652 12.7207C204.035 12.541 204.303 12.3574 204.455 12.1699C204.607 11.9824 204.684 11.7656 204.684 11.5195C204.684 11.25 204.586 11.0371 204.391 10.8809C204.195 10.7246 203.945 10.6465 203.641 10.6465ZM213.543 18H207.555V16.7402L209.705 14.5664C210.342 13.9141 210.758 13.4629 210.953 13.2129C211.148 12.959 211.289 12.7246 211.375 12.5098C211.461 12.2949 211.504 12.0723 211.504 11.8418C211.504 11.498 211.408 11.2422 211.217 11.0742C211.029 10.9062 210.777 10.8223 210.461 10.8223C210.129 10.8223 209.807 10.8984 209.494 11.0508C209.182 11.2031 208.855 11.4199 208.516 11.7012L207.531 10.5352C207.953 10.1758 208.303 9.92188 208.58 9.77344C208.857 9.625 209.16 9.51172 209.488 9.43359C209.816 9.35156 210.184 9.31055 210.59 9.31055C211.125 9.31055 211.598 9.4082 212.008 9.60352C212.418 9.79883 212.736 10.0723 212.963 10.4238C213.189 10.7754 213.303 11.1777 213.303 11.6309C213.303 12.0254 213.232 12.3965 213.092 12.7441C212.955 13.0879 212.74 13.4414 212.447 13.8047C212.158 14.168 211.646 14.6855 210.912 15.3574L209.811 16.3945V16.4766H213.543V18ZM255.229 14.7129C255.229 15.3613 255.334 15.8516 255.545 16.1836C255.76 16.5156 256.107 16.6816 256.588 16.6816C257.064 16.6816 257.406 16.5176 257.613 16.1895C257.824 15.8574 257.93 15.3652 257.93 14.7129C257.93 14.0645 257.824 13.5781 257.613 13.2539C257.402 12.9297 257.057 12.7676 256.576 12.7676C256.1 12.7676 255.756 12.9297 255.545 13.2539C255.334 13.5742 255.229 14.0605 255.229 14.7129ZM259.758 14.7129C259.758 15.7793 259.477 16.6133 258.914 17.2148C258.352 17.8164 257.568 18.1172 256.564 18.1172C255.936 18.1172 255.381 17.9805 254.9 17.707C254.42 17.4297 254.051 17.0332 253.793 16.5176C253.535 16.002 253.406 15.4004 253.406 14.7129C253.406 13.6426 253.686 12.8105 254.244 12.2168C254.803 11.623 255.588 11.3262 256.6 11.3262C257.229 11.3262 257.783 11.4629 258.264 11.7363C258.744 12.0098 259.113 12.4023 259.371 12.9141C259.629 13.4258 259.758 14.0254 259.758 14.7129ZM264.855 12.791H263.309V18H261.521V12.791H260.537V11.9297L261.521 11.4492V10.9688C261.521 10.2227 261.705 9.67773 262.072 9.33398C262.439 8.99023 263.027 8.81836 263.836 8.81836C264.453 8.81836 265.002 8.91016 265.482 9.09375L265.025 10.4062C264.666 10.293 264.334 10.2363 264.029 10.2363C263.775 10.2363 263.592 10.3125 263.479 10.4648C263.365 10.6133 263.309 10.8047 263.309 11.0391V11.4492H264.855V12.791ZM269.502 12.791H267.955V18H266.168V12.791H265.184V11.9297L266.168 11.4492V10.9688C266.168 10.2227 266.352 9.67773 266.719 9.33398C267.086 8.99023 267.674 8.81836 268.482 8.81836C269.1 8.81836 269.648 8.91016 270.129 9.09375L269.672 10.4062C269.312 10.293 268.98 10.2363 268.676 10.2363C268.422 10.2363 268.238 10.3125 268.125 10.4648C268.012 10.6133 267.955 10.8047 267.955 11.0391V11.4492H269.502V12.791ZM270.434 9.75586C270.434 9.17383 270.758 8.88281 271.406 8.88281C272.055 8.88281 272.379 9.17383 272.379 9.75586C272.379 10.0332 272.297 10.25 272.133 10.4062C271.973 10.5586 271.73 10.6348 271.406 10.6348C270.758 10.6348 270.434 10.3418 270.434 9.75586ZM272.297 18H270.51V11.4492H272.297V18ZM276.832 18.1172C274.793 18.1172 273.773 16.998 273.773 14.7598C273.773 13.6465 274.051 12.7969 274.605 12.2109C275.16 11.6211 275.955 11.3262 276.99 11.3262C277.748 11.3262 278.428 11.4746 279.029 11.7715L278.502 13.1543C278.221 13.041 277.959 12.9492 277.717 12.8789C277.475 12.8047 277.232 12.7676 276.99 12.7676C276.061 12.7676 275.596 13.4277 275.596 14.748C275.596 16.0293 276.061 16.6699 276.99 16.6699C277.334 16.6699 277.652 16.625 277.945 16.5352C278.238 16.4414 278.531 16.2969 278.824 16.1016V17.6309C278.535 17.8145 278.242 17.9414 277.945 18.0117C277.652 18.082 277.281 18.1172 276.832 18.1172ZM283.061 12.5977C282.682 12.5977 282.385 12.7188 282.17 12.9609C281.955 13.1992 281.832 13.5391 281.801 13.9805H284.309C284.301 13.5391 284.186 13.1992 283.963 12.9609C283.74 12.7188 283.439 12.5977 283.061 12.5977ZM283.312 18.1172C282.258 18.1172 281.434 17.8262 280.84 17.2441C280.246 16.6621 279.949 15.8379 279.949 14.7715C279.949 13.6738 280.223 12.8262 280.77 12.2285C281.32 11.627 282.08 11.3262 283.049 11.3262C283.975 11.3262 284.695 11.5898 285.211 12.1172C285.727 12.6445 285.984 13.373 285.984 14.3027V15.1699H281.76C281.779 15.6777 281.93 16.0742 282.211 16.3594C282.492 16.6445 282.887 16.7871 283.395 16.7871C283.789 16.7871 284.162 16.7461 284.514 16.6641C284.865 16.582 285.232 16.4512 285.615 16.2715V17.6543C285.303 17.8105 284.969 17.9258 284.613 18C284.258 18.0781 283.824 18.1172 283.312 18.1172ZM296.666 13.5938C296.666 14.1562 296.576 14.6719 296.396 15.1406C296.217 15.6055 295.963 15.9707 295.635 16.2363C295.307 16.502 294.926 16.6348 294.492 16.6348C294.203 16.6348 293.947 16.5664 293.725 16.4297C293.502 16.2891 293.342 16.1055 293.244 15.8789H293.15C292.729 16.3828 292.191 16.6348 291.539 16.6348C290.848 16.6348 290.303 16.4277 289.904 16.0137C289.506 15.5957 289.307 15.0254 289.307 14.3027C289.307 13.4785 289.568 12.8145 290.092 12.3105C290.615 11.8066 291.299 11.5547 292.143 11.5547C292.479 11.5547 292.848 11.5879 293.25 11.6543C293.656 11.7168 293.99 11.793 294.252 11.8828L294.117 14.748C294.117 15.291 294.266 15.5625 294.562 15.5625C294.812 15.5625 295.012 15.3809 295.16 15.0176C295.309 14.6504 295.383 14.1719 295.383 13.582C295.383 12.9531 295.252 12.3984 294.99 11.918C294.729 11.4336 294.359 11.0645 293.883 10.8105C293.41 10.5566 292.869 10.4297 292.26 10.4297C291.471 10.4297 290.785 10.5918 290.203 10.916C289.621 11.2402 289.174 11.709 288.861 12.3223C288.553 12.9316 288.398 13.6367 288.398 14.4375C288.398 15.5156 288.686 16.3438 289.26 16.9219C289.838 17.4961 290.674 17.7832 291.768 17.7832C292.182 17.7832 292.637 17.7383 293.133 17.6484C293.629 17.5547 294.117 17.4199 294.598 17.2441V18.3691C293.762 18.7246 292.834 18.9023 291.814 18.9023C290.33 18.9023 289.172 18.5117 288.34 17.7305C287.512 16.9492 287.098 15.8633 287.098 14.4727C287.098 13.5078 287.309 12.6328 287.73 11.8477C288.156 11.0586 288.76 10.4414 289.541 9.99609C290.326 9.54688 291.229 9.32227 292.248 9.32227C293.107 9.32227 293.875 9.49805 294.551 9.84961C295.227 10.2012 295.748 10.7012 296.115 11.3496C296.482 11.998 296.666 12.7461 296.666 13.5938ZM290.666 14.3262C290.666 15.1504 291.002 15.5625 291.674 15.5625C292.025 15.5625 292.293 15.4395 292.477 15.1934C292.66 14.9434 292.771 14.5391 292.811 13.9805L292.887 12.6855C292.688 12.6426 292.463 12.6211 292.213 12.6211C291.725 12.6211 291.344 12.7734 291.07 13.0781C290.801 13.3828 290.666 13.7988 290.666 14.3262ZM304.072 18H302.285V14.1738C302.285 13.7012 302.205 13.3477 302.045 13.1133C301.889 12.875 301.641 12.7559 301.301 12.7559C300.844 12.7559 300.512 12.9238 300.305 13.2598C300.098 13.5957 299.994 14.1484 299.994 14.918V18H298.207V11.4492H299.572L299.812 12.2871H299.912C300.088 11.9863 300.342 11.752 300.674 11.584C301.006 11.4121 301.387 11.3262 301.816 11.3262C302.797 11.3262 303.461 11.6465 303.809 12.2871H303.967C304.143 11.9824 304.4 11.7461 304.74 11.5781C305.084 11.4102 305.471 11.3262 305.9 11.3262C306.643 11.3262 307.203 11.5176 307.582 11.9004C307.965 12.2793 308.156 12.8887 308.156 13.7285V18H306.363V14.1738C306.363 13.7012 306.283 13.3477 306.123 13.1133C305.967 12.875 305.719 12.7559 305.379 12.7559C304.941 12.7559 304.613 12.9121 304.395 13.2246C304.18 13.5371 304.072 14.0332 304.072 14.7129V18ZM309.92 9.75586C309.92 9.17383 310.244 8.88281 310.893 8.88281C311.541 8.88281 311.865 9.17383 311.865 9.75586C311.865 10.0332 311.783 10.25 311.619 10.4062C311.459 10.5586 311.217 10.6348 310.893 10.6348C310.244 10.6348 309.92 10.3418 309.92 9.75586ZM311.783 18H309.996V11.4492H311.783V18ZM319.711 18H317.924V14.1738C317.924 13.7012 317.84 13.3477 317.672 13.1133C317.504 12.875 317.236 12.7559 316.869 12.7559C316.369 12.7559 316.008 12.9238 315.785 13.2598C315.562 13.5918 315.451 14.1445 315.451 14.918V18H313.664V11.4492H315.029L315.27 12.2871H315.369C315.568 11.9707 315.842 11.7324 316.189 11.5723C316.541 11.4082 316.939 11.3262 317.385 11.3262C318.146 11.3262 318.725 11.5332 319.119 11.9473C319.514 12.3574 319.711 12.9512 319.711 13.7285V18ZM323.625 18.1172C322.855 18.1172 322.25 17.8184 321.809 17.2207C321.371 16.623 321.152 15.7949 321.152 14.7363C321.152 13.6621 321.375 12.8262 321.82 12.2285C322.27 11.627 322.887 11.3262 323.672 11.3262C324.496 11.3262 325.125 11.6465 325.559 12.2871H325.617C325.527 11.7988 325.482 11.3633 325.482 10.9805V8.88281H327.275V18H325.904L325.559 17.1504H325.482C325.076 17.7949 324.457 18.1172 323.625 18.1172ZM324.252 16.6934C324.709 16.6934 325.043 16.5605 325.254 16.2949C325.469 16.0293 325.586 15.5781 325.605 14.9414V14.748C325.605 14.0449 325.496 13.541 325.277 13.2363C325.062 12.9316 324.711 12.7793 324.223 12.7793C323.824 12.7793 323.514 12.9492 323.291 13.2891C323.072 13.625 322.963 14.1152 322.963 14.7598C322.963 15.4043 323.074 15.8887 323.297 16.2129C323.52 16.5332 323.838 16.6934 324.252 16.6934ZM332.789 11.3262C333.562 11.3262 334.168 11.6289 334.605 12.2344C335.043 12.8359 335.262 13.6621 335.262 14.7129C335.262 15.7949 335.035 16.6328 334.582 17.2266C334.133 17.8203 333.52 18.1172 332.742 18.1172C331.973 18.1172 331.369 17.8379 330.932 17.2793H330.809L330.51 18H329.145V8.88281H330.932V11.0039C330.932 11.2734 330.908 11.7051 330.861 12.2988H330.932C331.35 11.6504 331.969 11.3262 332.789 11.3262ZM332.215 12.7559C331.773 12.7559 331.451 12.8926 331.248 13.166C331.045 13.4355 330.939 13.8828 330.932 14.5078V14.7012C330.932 15.4043 331.035 15.9082 331.242 16.2129C331.453 16.5176 331.785 16.6699 332.238 16.6699C332.605 16.6699 332.896 16.502 333.111 16.166C333.33 15.8262 333.439 15.334 333.439 14.6895C333.439 14.0449 333.33 13.5625 333.111 13.2422C332.893 12.918 332.594 12.7559 332.215 12.7559ZM338.525 18H336.738V8.88281H338.525V18ZM340.33 9.75586C340.33 9.17383 340.654 8.88281 341.303 8.88281C341.951 8.88281 342.275 9.17383 342.275 9.75586C342.275 10.0332 342.193 10.25 342.029 10.4062C341.869 10.5586 341.627 10.6348 341.303 10.6348C340.654 10.6348 340.33 10.3418 340.33 9.75586ZM342.193 18H340.406V11.4492H342.193V18ZM348.645 16.0547C348.645 16.7266 348.41 17.2383 347.941 17.5898C347.477 17.9414 346.779 18.1172 345.85 18.1172C345.373 18.1172 344.967 18.084 344.631 18.0176C344.295 17.9551 343.98 17.8613 343.688 17.7363V16.2598C344.02 16.416 344.393 16.5469 344.807 16.6523C345.225 16.7578 345.592 16.8105 345.908 16.8105C346.557 16.8105 346.881 16.623 346.881 16.248C346.881 16.1074 346.838 15.9941 346.752 15.9082C346.666 15.8184 346.518 15.7188 346.307 15.6094C346.096 15.4961 345.814 15.3652 345.463 15.2168C344.959 15.0059 344.588 14.8105 344.35 14.6309C344.115 14.4512 343.943 14.2461 343.834 14.0156C343.729 13.7812 343.676 13.4941 343.676 13.1543C343.676 12.5723 343.9 12.123 344.35 11.8066C344.803 11.4863 345.443 11.3262 346.271 11.3262C347.061 11.3262 347.828 11.498 348.574 11.8418L348.035 13.1309C347.707 12.9902 347.4 12.875 347.115 12.7852C346.83 12.6953 346.539 12.6504 346.242 12.6504C345.715 12.6504 345.451 12.793 345.451 13.0781C345.451 13.2383 345.535 13.377 345.703 13.4941C345.875 13.6113 346.248 13.7852 346.822 14.0156C347.334 14.2227 347.709 14.416 347.947 14.5957C348.186 14.7754 348.361 14.9824 348.475 15.2168C348.588 15.4512 348.645 15.7305 348.645 16.0547ZM352.799 16.6934C353.111 16.6934 353.486 16.625 353.924 16.4883V17.8184C353.479 18.0176 352.932 18.1172 352.283 18.1172C351.568 18.1172 351.047 17.9375 350.719 17.5781C350.395 17.2148 350.232 16.6719 350.232 15.9492V12.791H349.377V12.0352L350.361 11.4375L350.877 10.0547H352.02V11.4492H353.854V12.791H352.02V15.9492C352.02 16.2031 352.09 16.3906 352.23 16.5117C352.375 16.6328 352.564 16.6934 352.799 16.6934ZM357.967 12.5977C357.588 12.5977 357.291 12.7188 357.076 12.9609C356.861 13.1992 356.738 13.5391 356.707 13.9805H359.215C359.207 13.5391 359.092 13.1992 358.869 12.9609C358.646 12.7188 358.346 12.5977 357.967 12.5977ZM358.219 18.1172C357.164 18.1172 356.34 17.8262 355.746 17.2441C355.152 16.6621 354.855 15.8379 354.855 14.7715C354.855 13.6738 355.129 12.8262 355.676 12.2285C356.227 11.627 356.986 11.3262 357.955 11.3262C358.881 11.3262 359.602 11.5898 360.117 12.1172C360.633 12.6445 360.891 13.373 360.891 14.3027V15.1699H356.666C356.686 15.6777 356.836 16.0742 357.117 16.3594C357.398 16.6445 357.793 16.7871 358.301 16.7871C358.695 16.7871 359.068 16.7461 359.42 16.6641C359.771 16.582 360.139 16.4512 360.521 16.2715V17.6543C360.209 17.8105 359.875 17.9258 359.52 18C359.164 18.0781 358.73 18.1172 358.219 18.1172ZM366 11.3262C366.242 11.3262 366.443 11.3438 366.604 11.3789L366.469 13.0547C366.324 13.0156 366.148 12.9961 365.941 12.9961C365.371 12.9961 364.926 13.1426 364.605 13.4355C364.289 13.7285 364.131 14.1387 364.131 14.666V18H362.344V11.4492H363.697L363.961 12.5508H364.049C364.252 12.1836 364.525 11.8887 364.869 11.666C365.217 11.4395 365.594 11.3262 366 11.3262ZM367.541 17.1621C367.541 16.834 367.629 16.5859 367.805 16.418C367.98 16.25 368.236 16.166 368.572 16.166C368.896 16.166 369.146 16.252 369.322 16.4238C369.502 16.5957 369.592 16.8418 369.592 17.1621C369.592 17.4707 369.502 17.7148 369.322 17.8945C369.143 18.0703 368.893 18.1582 368.572 18.1582C368.244 18.1582 367.99 18.0723 367.811 17.9004C367.631 17.7246 367.541 17.4785 367.541 17.1621ZM373.875 18.1172C371.836 18.1172 370.816 16.998 370.816 14.7598C370.816 13.6465 371.094 12.7969 371.648 12.2109C372.203 11.6211 372.998 11.3262 374.033 11.3262C374.791 11.3262 375.471 11.4746 376.072 11.7715L375.545 13.1543C375.264 13.041 375.002 12.9492 374.76 12.8789C374.518 12.8047 374.275 12.7676 374.033 12.7676C373.104 12.7676 372.639 13.4277 372.639 14.748C372.639 16.0293 373.104 16.6699 374.033 16.6699C374.377 16.6699 374.695 16.625 374.988 16.5352C375.281 16.4414 375.574 16.2969 375.867 16.1016V17.6309C375.578 17.8145 375.285 17.9414 374.988 18.0117C374.695 18.082 374.324 18.1172 373.875 18.1172ZM378.814 14.7129C378.814 15.3613 378.92 15.8516 379.131 16.1836C379.346 16.5156 379.693 16.6816 380.174 16.6816C380.65 16.6816 380.992 16.5176 381.199 16.1895C381.41 15.8574 381.516 15.3652 381.516 14.7129C381.516 14.0645 381.41 13.5781 381.199 13.2539C380.988 12.9297 380.643 12.7676 380.162 12.7676C379.686 12.7676 379.342 12.9297 379.131 13.2539C378.92 13.5742 378.814 14.0605 378.814 14.7129ZM383.344 14.7129C383.344 15.7793 383.062 16.6133 382.5 17.2148C381.938 17.8164 381.154 18.1172 380.15 18.1172C379.521 18.1172 378.967 17.9805 378.486 17.707C378.006 17.4297 377.637 17.0332 377.379 16.5176C377.121 16.002 376.992 15.4004 376.992 14.7129C376.992 13.6426 377.271 12.8105 377.83 12.2168C378.389 11.623 379.174 11.3262 380.186 11.3262C380.814 11.3262 381.369 11.4629 381.85 11.7363C382.33 12.0098 382.699 12.4023 382.957 12.9141C383.215 13.4258 383.344 14.0254 383.344 14.7129ZM390.686 18H388.898V14.1738C388.898 13.7012 388.818 13.3477 388.658 13.1133C388.502 12.875 388.254 12.7559 387.914 12.7559C387.457 12.7559 387.125 12.9238 386.918 13.2598C386.711 13.5957 386.607 14.1484 386.607 14.918V18H384.82V11.4492H386.186L386.426 12.2871H386.525C386.701 11.9863 386.955 11.752 387.287 11.584C387.619 11.4121 388 11.3262 388.43 11.3262C389.41 11.3262 390.074 11.6465 390.422 12.2871H390.58C390.756 11.9824 391.014 11.7461 391.354 11.5781C391.697 11.4102 392.084 11.3262 392.514 11.3262C393.256 11.3262 393.816 11.5176 394.195 11.9004C394.578 12.2793 394.77 12.8887 394.77 13.7285V18H392.977V14.1738C392.977 13.7012 392.896 13.3477 392.736 13.1133C392.58 12.875 392.332 12.7559 391.992 12.7559C391.555 12.7559 391.227 12.9121 391.008 13.2246C390.793 13.5371 390.686 14.0332 390.686 14.7129V18Z" fill="#333" fill-opacity=".5"/></g><defs><clipPath id="clip0"><path fill="#fff" transform="translate(-276 -5959)" d="M0 0H1440V6677H0z"/></clipPath></defs></svg>